<?xml version="1.0" encoding="utf-8" standalone="no"?>
<!DOCTYPE svg PUBLIC "-//W3C//DTD SVG 1.1//EN"
  "http://www.w3.org/Graphics/SVG/1.1/DTD/svg11.dtd">
<svg xmlns:xlink="http://www.w3.org/1999/xlink" width="397.830625pt" height="1154.99625pt" viewBox="0 0 397.830625 1154.99625" xmlns="http://www.w3.org/2000/svg" version="1.1">
 <metadata>
  <rdf:RDF xmlns:dc="http://purl.org/dc/elements/1.1/" xmlns:cc="http://creativecommons.org/ns#" xmlns:rdf="http://www.w3.org/1999/02/22-rdf-syntax-ns#">
   <cc:Work>
    <dc:type rdf:resource="http://purl.org/dc/dcmitype/StillImage"/>
    <dc:date>2024-10-22T15:53:07.780081</dc:date>
    <dc:format>image/svg+xml</dc:format>
    <dc:creator>
     <cc:Agent>
      <dc:title>Matplotlib v3.9.2, https://matplotlib.org/</dc:title>
     </cc:Agent>
    </dc:creator>
   </cc:Work>
  </rdf:RDF>
 </metadata>
 <defs>
  <style type="text/css">*{stroke-linejoin: round; stroke-linecap: butt}</style>
 </defs>
 <g id="figure_1">
  <g id="patch_1">
   <path d="M 0 1154.99625 
L 397.830625 1154.99625 
L 397.830625 0 
L 0 0 
z
" style="fill: #ffffff"/>
  </g>
  <g id="axes_1">
   <g id="patch_2">
    <path d="M 100.464063 1131.118125 
L 379.464063 1131.118125 
L 379.464063 22.318125 
L 100.464063 22.318125 
z
" style="fill: #ffffff"/>
   </g>
   <g id="patch_3">
    <path d="M 100.464063 1018.687356 
L 179.051824 1018.687356 
L 179.051824 1003.179663 
L 100.464063 1003.179663 
z
" clip-path="url(#pa38114312a)" style="fill: #1f77b4"/>
   </g>
   <g id="patch_4">
    <path d="M 100.464063 925.641202 
L 178.861057 925.641202 
L 178.861057 910.13351 
L 100.464063 910.13351 
z
" clip-path="url(#pa38114312a)" style="fill: #1f77b4"/>
   </g>
   <g id="patch_5">
    <path d="M 100.464063 832.595048 
L 179.393654 832.595048 
L 179.393654 817.087356 
L 100.464063 817.087356 
z
" clip-path="url(#pa38114312a)" style="fill: #1f77b4"/>
   </g>
   <g id="patch_6">
    <path d="M 100.464063 739.548894 
L 179.232665 739.548894 
L 179.232665 724.041202 
L 100.464063 724.041202 
z
" clip-path="url(#pa38114312a)" style="fill: #1f77b4"/>
   </g>
   <g id="patch_7">
    <path d="M 100.464063 646.50274 
L 179.308662 646.50274 
L 179.308662 630.995048 
L 100.464063 630.995048 
z
" clip-path="url(#pa38114312a)" style="fill: #1f77b4"/>
   </g>
   <g id="patch_8">
    <path d="M 100.464063 553.456587 
L 179.233286 553.456587 
L 179.233286 537.948894 
L 100.464063 537.948894 
z
" clip-path="url(#pa38114312a)" style="fill: #1f77b4"/>
   </g>
   <g id="patch_9">
    <path d="M 100.464063 460.410433 
L 178.977068 460.410433 
L 178.977068 444.90274 
L 100.464063 444.90274 
z
" clip-path="url(#pa38114312a)" style="fill: #1f77b4"/>
   </g>
   <g id="patch_10">
    <path d="M 100.464063 367.364279 
L 178.251532 367.364279 
L 178.251532 351.856587 
L 100.464063 351.856587 
z
" clip-path="url(#pa38114312a)" style="fill: #1f77b4"/>
   </g>
   <g id="patch_11">
    <path d="M 100.464063 274.318125 
L 179.17559 274.318125 
L 179.17559 258.810433 
L 100.464063 258.810433 
z
" clip-path="url(#pa38114312a)" style="fill: #1f77b4"/>
   </g>
   <g id="patch_12">
    <path d="M 100.464063 181.271971 
L 178.991337 181.271971 
L 178.991337 165.764279 
L 100.464063 165.764279 
z
" clip-path="url(#pa38114312a)" style="fill: #1f77b4"/>
   </g>
   <g id="patch_13">
    <path d="M 100.464063 88.225817 
L 179.098973 88.225817 
L 179.098973 72.718125 
L 100.464063 72.718125 
z
" clip-path="url(#pa38114312a)" style="fill: #1f77b4"/>
   </g>
   <g id="patch_14">
    <path d="M 100.464063 1034.195048 
L 271.860591 1034.195048 
L 271.860591 1018.687356 
L 100.464063 1018.687356 
z
" clip-path="url(#pa38114312a)" style="fill: #ff7f0e"/>
   </g>
   <g id="patch_15">
    <path d="M 100.464063 941.148894 
L 271.37871 941.148894 
L 271.37871 925.641202 
L 100.464063 925.641202 
z
" clip-path="url(#pa38114312a)" style="fill: #ff7f0e"/>
   </g>
   <g id="patch_16">
    <path d="M 100.464063 848.10274 
L 268.643448 848.10274 
L 268.643448 832.595048 
L 100.464063 832.595048 
z
" clip-path="url(#pa38114312a)" style="fill: #ff7f0e"/>
   </g>
   <g id="patch_17">
    <path d="M 100.464063 755.056587 
L 271.224545 755.056587 
L 271.224545 739.548894 
L 100.464063 739.548894 
z
" clip-path="url(#pa38114312a)" style="fill: #ff7f0e"/>
   </g>
   <g id="patch_18">
    <path d="M 100.464063 662.010433 
L 273.526161 662.010433 
L 273.526161 646.50274 
L 100.464063 646.50274 
z
" clip-path="url(#pa38114312a)" style="fill: #ff7f0e"/>
   </g>
   <g id="patch_19">
    <path d="M 100.464063 568.964279 
L 271.797312 568.964279 
L 271.797312 553.456587 
L 100.464063 553.456587 
z
" clip-path="url(#pa38114312a)" style="fill: #ff7f0e"/>
   </g>
   <g id="patch_20">
    <path d="M 100.464063 475.918125 
L 273.641397 475.918125 
L 273.641397 460.410433 
L 100.464063 460.410433 
z
" clip-path="url(#pa38114312a)" style="fill: #ff7f0e"/>
   </g>
   <g id="patch_21">
    <path d="M 100.464063 382.871971 
L 275.532475 382.871971 
L 275.532475 367.364279 
L 100.464063 367.364279 
z
" clip-path="url(#pa38114312a)" style="fill: #ff7f0e"/>
   </g>
   <g id="patch_22">
    <path d="M 100.464063 289.825817 
L 273.331361 289.825817 
L 273.331361 274.318125 
L 100.464063 274.318125 
z
" clip-path="url(#pa38114312a)" style="fill: #ff7f0e"/>
   </g>
   <g id="patch_23">
    <path d="M 100.464063 196.779663 
L 271.261148 196.779663 
L 271.261148 181.271971 
L 100.464063 181.271971 
z
" clip-path="url(#pa38114312a)" style="fill: #ff7f0e"/>
   </g>
   <g id="patch_24">
    <path d="M 100.464063 103.73351 
L 268.400724 103.73351 
L 268.400724 88.225817 
L 100.464063 88.225817 
z
" clip-path="url(#pa38114312a)" style="fill: #ff7f0e"/>
   </g>
   <g id="patch_25">
    <path d="M 100.464063 1049.70274 
L 246.906365 1049.70274 
L 246.906365 1034.195048 
L 100.464063 1034.195048 
z
" clip-path="url(#pa38114312a)" style="fill: #2ca02c"/>
   </g>
   <g id="patch_26">
    <path d="M 100.464063 956.656587 
L 246.929008 956.656587 
L 246.929008 941.148894 
L 100.464063 941.148894 
z
" clip-path="url(#pa38114312a)" style="fill: #2ca02c"/>
   </g>
   <g id="patch_27">
    <path d="M 100.464063 863.610433 
L 246.965301 863.610433 
L 246.965301 848.10274 
L 100.464063 848.10274 
z
" clip-path="url(#pa38114312a)" style="fill: #2ca02c"/>
   </g>
   <g id="patch_28">
    <path d="M 100.464063 770.564279 
L 246.93211 770.564279 
L 246.93211 755.056587 
L 100.464063 755.056587 
z
" clip-path="url(#pa38114312a)" style="fill: #2ca02c"/>
   </g>
   <g id="patch_29">
    <path d="M 100.464063 677.518125 
L 246.937694 677.518125 
L 246.937694 662.010433 
L 100.464063 662.010433 
z
" clip-path="url(#pa38114312a)" style="fill: #2ca02c"/>
   </g>
   <g id="patch_30">
    <path d="M 100.464063 584.471971 
L 246.839984 584.471971 
L 246.839984 568.964279 
L 100.464063 568.964279 
z
" clip-path="url(#pa38114312a)" style="fill: #2ca02c"/>
   </g>
   <g id="patch_31">
    <path d="M 100.464063 491.425817 
L 246.889304 491.425817 
L 246.889304 475.918125 
L 100.464063 475.918125 
z
" clip-path="url(#pa38114312a)" style="fill: #2ca02c"/>
   </g>
   <g id="patch_32">
    <path d="M 100.464063 398.379663 
L 246.895508 398.379663 
L 246.895508 382.871971 
L 100.464063 382.871971 
z
" clip-path="url(#pa38114312a)" style="fill: #2ca02c"/>
   </g>
   <g id="patch_33">
    <path d="M 100.464063 305.33351 
L 246.925286 305.33351 
L 246.925286 289.825817 
L 100.464063 289.825817 
z
" clip-path="url(#pa38114312a)" style="fill: #2ca02c"/>
   </g>
   <g id="patch_34">
    <path d="M 100.464063 212.287356 
L 246.905744 212.287356 
L 246.905744 196.779663 
L 100.464063 196.779663 
z
" clip-path="url(#pa38114312a)" style="fill: #2ca02c"/>
   </g>
   <g id="patch_35">
    <path d="M 100.464063 119.241202 
L 246.843396 119.241202 
L 246.843396 103.73351 
L 100.464063 103.73351 
z
" clip-path="url(#pa38114312a)" style="fill: #2ca02c"/>
   </g>
   <g id="patch_36">
    <path d="M 100.464063 1065.210433 
L 285.741938 1065.210433 
L 285.741938 1049.70274 
L 100.464063 1049.70274 
z
" clip-path="url(#pa38114312a)" style="fill: #d62728"/>
   </g>
   <g id="patch_37">
    <path d="M 100.464063 972.164279 
L 281.9877 972.164279 
L 281.9877 956.656587 
L 100.464063 956.656587 
z
" clip-path="url(#pa38114312a)" style="fill: #d62728"/>
   </g>
   <g id="patch_38">
    <path d="M 100.464063 879.118125 
L 286.090283 879.118125 
L 286.090283 863.610433 
L 100.464063 863.610433 
z
" clip-path="url(#pa38114312a)" style="fill: #d62728"/>
   </g>
   <g id="patch_39">
    <path d="M 100.464063 786.071971 
L 286.307416 786.071971 
L 286.307416 770.564279 
L 100.464063 770.564279 
z
" clip-path="url(#pa38114312a)" style="fill: #d62728"/>
   </g>
   <g id="patch_40">
    <path d="M 100.464063 693.025817 
L 286.464063 693.025817 
L 286.464063 677.518125 
L 100.464063 677.518125 
z
" clip-path="url(#pa38114312a)" style="fill: #d62728"/>
   </g>
   <g id="patch_41">
    <path d="M 100.464063 599.979663 
L 286.290666 599.979663 
L 286.290666 584.471971 
L 100.464063 584.471971 
z
" clip-path="url(#pa38114312a)" style="fill: #d62728"/>
   </g>
   <g id="patch_42">
    <path d="M 100.464063 506.93351 
L 286.463442 506.93351 
L 286.463442 491.425817 
L 100.464063 491.425817 
z
" clip-path="url(#pa38114312a)" style="fill: #d62728"/>
   </g>
   <g id="patch_43">
    <path d="M 100.464063 413.887356 
L 286.403265 413.887356 
L 286.403265 398.379663 
L 100.464063 398.379663 
z
" clip-path="url(#pa38114312a)" style="fill: #d62728"/>
   </g>
   <g id="patch_44">
    <path d="M 100.464063 320.841202 
L 286.202572 320.841202 
L 286.202572 305.33351 
L 100.464063 305.33351 
z
" clip-path="url(#pa38114312a)" style="fill: #d62728"/>
   </g>
   <g id="patch_45">
    <path d="M 100.464063 227.795048 
L 286.114478 227.795048 
L 286.114478 212.287356 
L 100.464063 212.287356 
z
" clip-path="url(#pa38114312a)" style="fill: #d62728"/>
   </g>
   <g id="patch_46">
    <path d="M 100.464063 134.748894 
L 285.140789 134.748894 
L 285.140789 119.241202 
L 100.464063 119.241202 
z
" clip-path="url(#pa38114312a)" style="fill: #d62728"/>
   </g>
   <g id="patch_47">
    <path d="M 100.464063 1080.718125 
L 181.11118 1080.718125 
L 181.11118 1065.210433 
L 100.464063 1065.210433 
z
" clip-path="url(#pa38114312a)" style="fill: #9467bd"/>
   </g>
   <g id="patch_48">
    <path d="M 100.464063 987.671971 
L 181.11118 987.671971 
L 181.11118 972.164279 
L 100.464063 972.164279 
z
" clip-path="url(#pa38114312a)" style="fill: #9467bd"/>
   </g>
   <g id="patch_49">
    <path d="M 100.464063 894.625817 
L 181.112421 894.625817 
L 181.112421 879.118125 
L 100.464063 879.118125 
z
" clip-path="url(#pa38114312a)" style="fill: #9467bd"/>
   </g>
   <g id="patch_50">
    <path d="M 100.464063 801.579663 
L 181.111801 801.579663 
L 181.111801 786.071971 
L 100.464063 786.071971 
z
" clip-path="url(#pa38114312a)" style="fill: #9467bd"/>
   </g>
   <g id="patch_51">
    <path d="M 100.464063 708.53351 
L 181.11087 708.53351 
L 181.11087 693.025817 
L 100.464063 693.025817 
z
" clip-path="url(#pa38114312a)" style="fill: #9467bd"/>
   </g>
   <g id="patch_52">
    <path d="M 100.464063 615.487356 
L 181.11056 615.487356 
L 181.11056 599.979663 
L 100.464063 599.979663 
z
" clip-path="url(#pa38114312a)" style="fill: #9467bd"/>
   </g>
   <g id="patch_53">
    <path d="M 100.464063 522.441202 
L 181.11118 522.441202 
L 181.11118 506.93351 
L 100.464063 506.93351 
z
" clip-path="url(#pa38114312a)" style="fill: #9467bd"/>
   </g>
   <g id="patch_54">
    <path d="M 100.464063 429.395048 
L 181.10994 429.395048 
L 181.10994 413.887356 
L 100.464063 413.887356 
z
" clip-path="url(#pa38114312a)" style="fill: #9467bd"/>
   </g>
   <g id="patch_55">
    <path d="M 100.464063 336.348894 
L 181.11087 336.348894 
L 181.11087 320.841202 
L 100.464063 320.841202 
z
" clip-path="url(#pa38114312a)" style="fill: #9467bd"/>
   </g>
   <g id="patch_56">
    <path d="M 100.464063 243.30274 
L 181.11025 243.30274 
L 181.11025 227.795048 
L 100.464063 227.795048 
z
" clip-path="url(#pa38114312a)" style="fill: #9467bd"/>
   </g>
   <g id="patch_57">
    <path d="M 100.464063 150.256587 
L 181.111491 150.256587 
L 181.111491 134.748894 
L 100.464063 134.748894 
z
" clip-path="url(#pa38114312a)" style="fill: #9467bd"/>
   </g>
   <g id="matplotlib.axis_1">
    <g id="xtick_1">
     <g id="line2d_1">
      <defs>
       <path id="mb94934ae27" d="M 0 0 
L 0 3.5 
" style="stroke: #000000; stroke-width: 0.8"/>
      </defs>
      <g>
       <use xlink:href="#mb94934ae27" x="100.464063" y="1131.118125" style="stroke: #000000; stroke-width: 0.8"/>
      </g>
     </g>
     <g id="text_1">
      <!-- 0 -->
      <g transform="translate(97.282813 1145.716563) scale(0.1 -0.1)">
       <defs>
        <path id="DejaVuSans-30" d="M 2034 4250 
Q 1547 4250 1301 3770 
Q 1056 3291 1056 2328 
Q 1056 1369 1301 889 
Q 1547 409 2034 409 
Q 2525 409 2770 889 
Q 3016 1369 3016 2328 
Q 3016 3291 2770 3770 
Q 2525 4250 2034 4250 
z
M 2034 4750 
Q 2819 4750 3233 4129 
Q 3647 3509 3647 2328 
Q 3647 1150 3233 529 
Q 2819 -91 2034 -91 
Q 1250 -91 836 529 
Q 422 1150 422 2328 
Q 422 3509 836 4129 
Q 1250 4750 2034 4750 
z
" transform="scale(0.015625)"/>
       </defs>
       <use xlink:href="#DejaVuSans-30"/>
      </g>
     </g>
    </g>
    <g id="xtick_2">
     <g id="line2d_2">
      <g>
       <use xlink:href="#mb94934ae27" x="131.483139" y="1131.118125" style="stroke: #000000; stroke-width: 0.8"/>
      </g>
     </g>
     <g id="text_2">
      <!-- 1000 -->
      <g transform="translate(118.758139 1145.716563) scale(0.1 -0.1)">
       <defs>
        <path id="DejaVuSans-31" d="M 794 531 
L 1825 531 
L 1825 4091 
L 703 3866 
L 703 4441 
L 1819 4666 
L 2450 4666 
L 2450 531 
L 3481 531 
L 3481 0 
L 794 0 
L 794 531 
z
" transform="scale(0.015625)"/>
       </defs>
       <use xlink:href="#DejaVuSans-31"/>
       <use xlink:href="#DejaVuSans-30" x="63.623047"/>
       <use xlink:href="#DejaVuSans-30" x="127.246094"/>
       <use xlink:href="#DejaVuSans-30" x="190.869141"/>
      </g>
     </g>
    </g>
    <g id="xtick_3">
     <g id="line2d_3">
      <g>
       <use xlink:href="#mb94934ae27" x="162.502216" y="1131.118125" style="stroke: #000000; stroke-width: 0.8"/>
      </g>
     </g>
     <g id="text_3">
      <!-- 2000 -->
      <g transform="translate(149.777216 1145.716563) scale(0.1 -0.1)">
       <defs>
        <path id="DejaVuSans-32" d="M 1228 531 
L 3431 531 
L 3431 0 
L 469 0 
L 469 531 
Q 828 903 1448 1529 
Q 2069 2156 2228 2338 
Q 2531 2678 2651 2914 
Q 2772 3150 2772 3378 
Q 2772 3750 2511 3984 
Q 2250 4219 1831 4219 
Q 1534 4219 1204 4116 
Q 875 4013 500 3803 
L 500 4441 
Q 881 4594 1212 4672 
Q 1544 4750 1819 4750 
Q 2544 4750 2975 4387 
Q 3406 4025 3406 3419 
Q 3406 3131 3298 2873 
Q 3191 2616 2906 2266 
Q 2828 2175 2409 1742 
Q 1991 1309 1228 531 
z
" transform="scale(0.015625)"/>
       </defs>
       <use xlink:href="#DejaVuSans-32"/>
       <use xlink:href="#DejaVuSans-30" x="63.623047"/>
       <use xlink:href="#DejaVuSans-30" x="127.246094"/>
       <use xlink:href="#DejaVuSans-30" x="190.869141"/>
      </g>
     </g>
    </g>
    <g id="xtick_4">
     <g id="line2d_4">
      <g>
       <use xlink:href="#mb94934ae27" x="193.521293" y="1131.118125" style="stroke: #000000; stroke-width: 0.8"/>
      </g>
     </g>
     <g id="text_4">
      <!-- 3000 -->
      <g transform="translate(180.796293 1145.716563) scale(0.1 -0.1)">
       <defs>
        <path id="DejaVuSans-33" d="M 2597 2516 
Q 3050 2419 3304 2112 
Q 3559 1806 3559 1356 
Q 3559 666 3084 287 
Q 2609 -91 1734 -91 
Q 1441 -91 1130 -33 
Q 819 25 488 141 
L 488 750 
Q 750 597 1062 519 
Q 1375 441 1716 441 
Q 2309 441 2620 675 
Q 2931 909 2931 1356 
Q 2931 1769 2642 2001 
Q 2353 2234 1838 2234 
L 1294 2234 
L 1294 2753 
L 1863 2753 
Q 2328 2753 2575 2939 
Q 2822 3125 2822 3475 
Q 2822 3834 2567 4026 
Q 2313 4219 1838 4219 
Q 1578 4219 1281 4162 
Q 984 4106 628 3988 
L 628 4550 
Q 988 4650 1302 4700 
Q 1616 4750 1894 4750 
Q 2613 4750 3031 4423 
Q 3450 4097 3450 3541 
Q 3450 3153 3228 2886 
Q 3006 2619 2597 2516 
z
" transform="scale(0.015625)"/>
       </defs>
       <use xlink:href="#DejaVuSans-33"/>
       <use xlink:href="#DejaVuSans-30" x="63.623047"/>
       <use xlink:href="#DejaVuSans-30" x="127.246094"/>
       <use xlink:href="#DejaVuSans-30" x="190.869141"/>
      </g>
     </g>
    </g>
    <g id="xtick_5">
     <g id="line2d_5">
      <g>
       <use xlink:href="#mb94934ae27" x="224.540369" y="1131.118125" style="stroke: #000000; stroke-width: 0.8"/>
      </g>
     </g>
     <g id="text_5">
      <!-- 4000 -->
      <g transform="translate(211.815369 1145.716563) scale(0.1 -0.1)">
       <defs>
        <path id="DejaVuSans-34" d="M 2419 4116 
L 825 1625 
L 2419 1625 
L 2419 4116 
z
M 2253 4666 
L 3047 4666 
L 3047 1625 
L 3713 1625 
L 3713 1100 
L 3047 1100 
L 3047 0 
L 2419 0 
L 2419 1100 
L 313 1100 
L 313 1709 
L 2253 4666 
z
" transform="scale(0.015625)"/>
       </defs>
       <use xlink:href="#DejaVuSans-34"/>
       <use xlink:href="#DejaVuSans-30" x="63.623047"/>
       <use xlink:href="#DejaVuSans-30" x="127.246094"/>
       <use xlink:href="#DejaVuSans-30" x="190.869141"/>
      </g>
     </g>
    </g>
    <g id="xtick_6">
     <g id="line2d_6">
      <g>
       <use xlink:href="#mb94934ae27" x="255.559446" y="1131.118125" style="stroke: #000000; stroke-width: 0.8"/>
      </g>
     </g>
     <g id="text_6">
      <!-- 5000 -->
      <g transform="translate(242.834446 1145.716563) scale(0.1 -0.1)">
       <defs>
        <path id="DejaVuSans-35" d="M 691 4666 
L 3169 4666 
L 3169 4134 
L 1269 4134 
L 1269 2991 
Q 1406 3038 1543 3061 
Q 1681 3084 1819 3084 
Q 2600 3084 3056 2656 
Q 3513 2228 3513 1497 
Q 3513 744 3044 326 
Q 2575 -91 1722 -91 
Q 1428 -91 1123 -41 
Q 819 9 494 109 
L 494 744 
Q 775 591 1075 516 
Q 1375 441 1709 441 
Q 2250 441 2565 725 
Q 2881 1009 2881 1497 
Q 2881 1984 2565 2268 
Q 2250 2553 1709 2553 
Q 1456 2553 1204 2497 
Q 953 2441 691 2322 
L 691 4666 
z
" transform="scale(0.015625)"/>
       </defs>
       <use xlink:href="#DejaVuSans-35"/>
       <use xlink:href="#DejaVuSans-30" x="63.623047"/>
       <use xlink:href="#DejaVuSans-30" x="127.246094"/>
       <use xlink:href="#DejaVuSans-30" x="190.869141"/>
      </g>
     </g>
    </g>
    <g id="xtick_7">
     <g id="line2d_7">
      <g>
       <use xlink:href="#mb94934ae27" x="286.578523" y="1131.118125" style="stroke: #000000; stroke-width: 0.8"/>
      </g>
     </g>
     <g id="text_7">
      <!-- 6000 -->
      <g transform="translate(273.853523 1145.716563) scale(0.1 -0.1)">
       <defs>
        <path id="DejaVuSans-36" d="M 2113 2584 
Q 1688 2584 1439 2293 
Q 1191 2003 1191 1497 
Q 1191 994 1439 701 
Q 1688 409 2113 409 
Q 2538 409 2786 701 
Q 3034 994 3034 1497 
Q 3034 2003 2786 2293 
Q 2538 2584 2113 2584 
z
M 3366 4563 
L 3366 3988 
Q 3128 4100 2886 4159 
Q 2644 4219 2406 4219 
Q 1781 4219 1451 3797 
Q 1122 3375 1075 2522 
Q 1259 2794 1537 2939 
Q 1816 3084 2150 3084 
Q 2853 3084 3261 2657 
Q 3669 2231 3669 1497 
Q 3669 778 3244 343 
Q 2819 -91 2113 -91 
Q 1303 -91 875 529 
Q 447 1150 447 2328 
Q 447 3434 972 4092 
Q 1497 4750 2381 4750 
Q 2619 4750 2861 4703 
Q 3103 4656 3366 4563 
z
" transform="scale(0.015625)"/>
       </defs>
       <use xlink:href="#DejaVuSans-36"/>
       <use xlink:href="#DejaVuSans-30" x="63.623047"/>
       <use xlink:href="#DejaVuSans-30" x="127.246094"/>
       <use xlink:href="#DejaVuSans-30" x="190.869141"/>
      </g>
     </g>
    </g>
    <g id="xtick_8">
     <g id="line2d_8">
      <g>
       <use xlink:href="#mb94934ae27" x="317.5976" y="1131.118125" style="stroke: #000000; stroke-width: 0.8"/>
      </g>
     </g>
     <g id="text_8">
      <!-- 7000 -->
      <g transform="translate(304.8726 1145.716563) scale(0.1 -0.1)">
       <defs>
        <path id="DejaVuSans-37" d="M 525 4666 
L 3525 4666 
L 3525 4397 
L 1831 0 
L 1172 0 
L 2766 4134 
L 525 4134 
L 525 4666 
z
" transform="scale(0.015625)"/>
       </defs>
       <use xlink:href="#DejaVuSans-37"/>
       <use xlink:href="#DejaVuSans-30" x="63.623047"/>
       <use xlink:href="#DejaVuSans-30" x="127.246094"/>
       <use xlink:href="#DejaVuSans-30" x="190.869141"/>
      </g>
     </g>
    </g>
    <g id="xtick_9">
     <g id="line2d_9">
      <g>
       <use xlink:href="#mb94934ae27" x="348.616676" y="1131.118125" style="stroke: #000000; stroke-width: 0.8"/>
      </g>
     </g>
     <g id="text_9">
      <!-- 8000 -->
      <g transform="translate(335.891676 1145.716563) scale(0.1 -0.1)">
       <defs>
        <path id="DejaVuSans-38" d="M 2034 2216 
Q 1584 2216 1326 1975 
Q 1069 1734 1069 1313 
Q 1069 891 1326 650 
Q 1584 409 2034 409 
Q 2484 409 2743 651 
Q 3003 894 3003 1313 
Q 3003 1734 2745 1975 
Q 2488 2216 2034 2216 
z
M 1403 2484 
Q 997 2584 770 2862 
Q 544 3141 544 3541 
Q 544 4100 942 4425 
Q 1341 4750 2034 4750 
Q 2731 4750 3128 4425 
Q 3525 4100 3525 3541 
Q 3525 3141 3298 2862 
Q 3072 2584 2669 2484 
Q 3125 2378 3379 2068 
Q 3634 1759 3634 1313 
Q 3634 634 3220 271 
Q 2806 -91 2034 -91 
Q 1263 -91 848 271 
Q 434 634 434 1313 
Q 434 1759 690 2068 
Q 947 2378 1403 2484 
z
M 1172 3481 
Q 1172 3119 1398 2916 
Q 1625 2713 2034 2713 
Q 2441 2713 2670 2916 
Q 2900 3119 2900 3481 
Q 2900 3844 2670 4047 
Q 2441 4250 2034 4250 
Q 1625 4250 1398 4047 
Q 1172 3844 1172 3481 
z
" transform="scale(0.015625)"/>
       </defs>
       <use xlink:href="#DejaVuSans-38"/>
       <use xlink:href="#DejaVuSans-30" x="63.623047"/>
       <use xlink:href="#DejaVuSans-30" x="127.246094"/>
       <use xlink:href="#DejaVuSans-30" x="190.869141"/>
      </g>
     </g>
    </g>
   </g>
   <g id="matplotlib.axis_2">
    <g id="ytick_1">
     <g id="line2d_10">
      <defs>
       <path id="m67eea45d60" d="M 0 0 
L -3.5 0 
" style="stroke: #000000; stroke-width: 0.8"/>
      </defs>
      <g>
       <use xlink:href="#m67eea45d60" x="100.464063" y="1041.948894" style="stroke: #000000; stroke-width: 0.8"/>
      </g>
     </g>
     <g id="text_10">
      <!-- geomean -->
      <g transform="translate(46.484375 1045.748113) scale(0.1 -0.1)">
       <defs>
        <path id="DejaVuSans-67" d="M 2906 1791 
Q 2906 2416 2648 2759 
Q 2391 3103 1925 3103 
Q 1463 3103 1205 2759 
Q 947 2416 947 1791 
Q 947 1169 1205 825 
Q 1463 481 1925 481 
Q 2391 481 2648 825 
Q 2906 1169 2906 1791 
z
M 3481 434 
Q 3481 -459 3084 -895 
Q 2688 -1331 1869 -1331 
Q 1566 -1331 1297 -1286 
Q 1028 -1241 775 -1147 
L 775 -588 
Q 1028 -725 1275 -790 
Q 1522 -856 1778 -856 
Q 2344 -856 2625 -561 
Q 2906 -266 2906 331 
L 2906 616 
Q 2728 306 2450 153 
Q 2172 0 1784 0 
Q 1141 0 747 490 
Q 353 981 353 1791 
Q 353 2603 747 3093 
Q 1141 3584 1784 3584 
Q 2172 3584 2450 3431 
Q 2728 3278 2906 2969 
L 2906 3500 
L 3481 3500 
L 3481 434 
z
" transform="scale(0.015625)"/>
        <path id="DejaVuSans-65" d="M 3597 1894 
L 3597 1613 
L 953 1613 
Q 991 1019 1311 708 
Q 1631 397 2203 397 
Q 2534 397 2845 478 
Q 3156 559 3463 722 
L 3463 178 
Q 3153 47 2828 -22 
Q 2503 -91 2169 -91 
Q 1331 -91 842 396 
Q 353 884 353 1716 
Q 353 2575 817 3079 
Q 1281 3584 2069 3584 
Q 2775 3584 3186 3129 
Q 3597 2675 3597 1894 
z
M 3022 2063 
Q 3016 2534 2758 2815 
Q 2500 3097 2075 3097 
Q 1594 3097 1305 2825 
Q 1016 2553 972 2059 
L 3022 2063 
z
" transform="scale(0.015625)"/>
        <path id="DejaVuSans-6f" d="M 1959 3097 
Q 1497 3097 1228 2736 
Q 959 2375 959 1747 
Q 959 1119 1226 758 
Q 1494 397 1959 397 
Q 2419 397 2687 759 
Q 2956 1122 2956 1747 
Q 2956 2369 2687 2733 
Q 2419 3097 1959 3097 
z
M 1959 3584 
Q 2709 3584 3137 3096 
Q 3566 2609 3566 1747 
Q 3566 888 3137 398 
Q 2709 -91 1959 -91 
Q 1206 -91 779 398 
Q 353 888 353 1747 
Q 353 2609 779 3096 
Q 1206 3584 1959 3584 
z
" transform="scale(0.015625)"/>
        <path id="DejaVuSans-6d" d="M 3328 2828 
Q 3544 3216 3844 3400 
Q 4144 3584 4550 3584 
Q 5097 3584 5394 3201 
Q 5691 2819 5691 2113 
L 5691 0 
L 5113 0 
L 5113 2094 
Q 5113 2597 4934 2840 
Q 4756 3084 4391 3084 
Q 3944 3084 3684 2787 
Q 3425 2491 3425 1978 
L 3425 0 
L 2847 0 
L 2847 2094 
Q 2847 2600 2669 2842 
Q 2491 3084 2119 3084 
Q 1678 3084 1418 2786 
Q 1159 2488 1159 1978 
L 1159 0 
L 581 0 
L 581 3500 
L 1159 3500 
L 1159 2956 
Q 1356 3278 1631 3431 
Q 1906 3584 2284 3584 
Q 2666 3584 2933 3390 
Q 3200 3197 3328 2828 
z
" transform="scale(0.015625)"/>
        <path id="DejaVuSans-61" d="M 2194 1759 
Q 1497 1759 1228 1600 
Q 959 1441 959 1056 
Q 959 750 1161 570 
Q 1363 391 1709 391 
Q 2188 391 2477 730 
Q 2766 1069 2766 1631 
L 2766 1759 
L 2194 1759 
z
M 3341 1997 
L 3341 0 
L 2766 0 
L 2766 531 
Q 2569 213 2275 61 
Q 1981 -91 1556 -91 
Q 1019 -91 701 211 
Q 384 513 384 1019 
Q 384 1609 779 1909 
Q 1175 2209 1959 2209 
L 2766 2209 
L 2766 2266 
Q 2766 2663 2505 2880 
Q 2244 3097 1772 3097 
Q 1472 3097 1187 3025 
Q 903 2953 641 2809 
L 641 3341 
Q 956 3463 1253 3523 
Q 1550 3584 1831 3584 
Q 2591 3584 2966 3190 
Q 3341 2797 3341 1997 
z
" transform="scale(0.015625)"/>
        <path id="DejaVuSans-6e" d="M 3513 2113 
L 3513 0 
L 2938 0 
L 2938 2094 
Q 2938 2591 2744 2837 
Q 2550 3084 2163 3084 
Q 1697 3084 1428 2787 
Q 1159 2491 1159 1978 
L 1159 0 
L 581 0 
L 581 3500 
L 1159 3500 
L 1159 2956 
Q 1366 3272 1645 3428 
Q 1925 3584 2291 3584 
Q 2894 3584 3203 3211 
Q 3513 2838 3513 2113 
z
" transform="scale(0.015625)"/>
       </defs>
       <use xlink:href="#DejaVuSans-67"/>
       <use xlink:href="#DejaVuSans-65" x="63.476562"/>
       <use xlink:href="#DejaVuSans-6f" x="125"/>
       <use xlink:href="#DejaVuSans-6d" x="186.181641"/>
       <use xlink:href="#DejaVuSans-65" x="283.59375"/>
       <use xlink:href="#DejaVuSans-61" x="345.117188"/>
       <use xlink:href="#DejaVuSans-6e" x="406.396484"/>
      </g>
     </g>
    </g>
    <g id="ytick_2">
     <g id="line2d_11">
      <g>
       <use xlink:href="#m67eea45d60" x="100.464063" y="948.90274" style="stroke: #000000; stroke-width: 0.8"/>
      </g>
     </g>
     <g id="text_11">
      <!-- 557.xz_r -->
      <g transform="translate(50.920313 952.562897) scale(0.1 -0.1)">
       <defs>
        <path id="DejaVuSans-2e" d="M 684 794 
L 1344 794 
L 1344 0 
L 684 0 
L 684 794 
z
" transform="scale(0.015625)"/>
        <path id="DejaVuSans-78" d="M 3513 3500 
L 2247 1797 
L 3578 0 
L 2900 0 
L 1881 1375 
L 863 0 
L 184 0 
L 1544 1831 
L 300 3500 
L 978 3500 
L 1906 2253 
L 2834 3500 
L 3513 3500 
z
" transform="scale(0.015625)"/>
        <path id="DejaVuSans-7a" d="M 353 3500 
L 3084 3500 
L 3084 2975 
L 922 459 
L 3084 459 
L 3084 0 
L 275 0 
L 275 525 
L 2438 3041 
L 353 3041 
L 353 3500 
z
" transform="scale(0.015625)"/>
        <path id="DejaVuSans-5f" d="M 3263 -1063 
L 3263 -1509 
L -63 -1509 
L -63 -1063 
L 3263 -1063 
z
" transform="scale(0.015625)"/>
        <path id="DejaVuSans-72" d="M 2631 2963 
Q 2534 3019 2420 3045 
Q 2306 3072 2169 3072 
Q 1681 3072 1420 2755 
Q 1159 2438 1159 1844 
L 1159 0 
L 581 0 
L 581 3500 
L 1159 3500 
L 1159 2956 
Q 1341 3275 1631 3429 
Q 1922 3584 2338 3584 
Q 2397 3584 2469 3576 
Q 2541 3569 2628 3553 
L 2631 2963 
z
" transform="scale(0.015625)"/>
       </defs>
       <use xlink:href="#DejaVuSans-35"/>
       <use xlink:href="#DejaVuSans-35" x="63.623047"/>
       <use xlink:href="#DejaVuSans-37" x="127.246094"/>
       <use xlink:href="#DejaVuSans-2e" x="190.869141"/>
       <use xlink:href="#DejaVuSans-78" x="222.65625"/>
       <use xlink:href="#DejaVuSans-7a" x="281.835938"/>
       <use xlink:href="#DejaVuSans-5f" x="334.326172"/>
       <use xlink:href="#DejaVuSans-72" x="384.326172"/>
      </g>
     </g>
    </g>
    <g id="ytick_3">
     <g id="line2d_12">
      <g>
       <use xlink:href="#m67eea45d60" x="100.464063" y="855.856587" style="stroke: #000000; stroke-width: 0.8"/>
      </g>
     </g>
     <g id="text_12">
      <!-- 548.exchange2_r -->
      <g transform="translate(7.2 859.655805) scale(0.1 -0.1)">
       <defs>
        <path id="DejaVuSans-63" d="M 3122 3366 
L 3122 2828 
Q 2878 2963 2633 3030 
Q 2388 3097 2138 3097 
Q 1578 3097 1268 2742 
Q 959 2388 959 1747 
Q 959 1106 1268 751 
Q 1578 397 2138 397 
Q 2388 397 2633 464 
Q 2878 531 3122 666 
L 3122 134 
Q 2881 22 2623 -34 
Q 2366 -91 2075 -91 
Q 1284 -91 818 406 
Q 353 903 353 1747 
Q 353 2603 823 3093 
Q 1294 3584 2113 3584 
Q 2378 3584 2631 3529 
Q 2884 3475 3122 3366 
z
" transform="scale(0.015625)"/>
        <path id="DejaVuSans-68" d="M 3513 2113 
L 3513 0 
L 2938 0 
L 2938 2094 
Q 2938 2591 2744 2837 
Q 2550 3084 2163 3084 
Q 1697 3084 1428 2787 
Q 1159 2491 1159 1978 
L 1159 0 
L 581 0 
L 581 4863 
L 1159 4863 
L 1159 2956 
Q 1366 3272 1645 3428 
Q 1925 3584 2291 3584 
Q 2894 3584 3203 3211 
Q 3513 2838 3513 2113 
z
" transform="scale(0.015625)"/>
       </defs>
       <use xlink:href="#DejaVuSans-35"/>
       <use xlink:href="#DejaVuSans-34" x="63.623047"/>
       <use xlink:href="#DejaVuSans-38" x="127.246094"/>
       <use xlink:href="#DejaVuSans-2e" x="190.869141"/>
       <use xlink:href="#DejaVuSans-65" x="222.65625"/>
       <use xlink:href="#DejaVuSans-78" x="282.429688"/>
       <use xlink:href="#DejaVuSans-63" x="339.859375"/>
       <use xlink:href="#DejaVuSans-68" x="394.839844"/>
       <use xlink:href="#DejaVuSans-61" x="458.21875"/>
       <use xlink:href="#DejaVuSans-6e" x="519.498047"/>
       <use xlink:href="#DejaVuSans-67" x="582.876953"/>
       <use xlink:href="#DejaVuSans-65" x="646.353516"/>
       <use xlink:href="#DejaVuSans-32" x="707.876953"/>
       <use xlink:href="#DejaVuSans-5f" x="771.5"/>
       <use xlink:href="#DejaVuSans-72" x="821.5"/>
      </g>
     </g>
    </g>
    <g id="ytick_4">
     <g id="line2d_13">
      <g>
       <use xlink:href="#m67eea45d60" x="100.464063" y="762.810433" style="stroke: #000000; stroke-width: 0.8"/>
      </g>
     </g>
     <g id="text_13">
      <!-- 541.leela_r -->
      <g transform="translate(38.096875 766.609651) scale(0.1 -0.1)">
       <defs>
        <path id="DejaVuSans-6c" d="M 603 4863 
L 1178 4863 
L 1178 0 
L 603 0 
L 603 4863 
z
" transform="scale(0.015625)"/>
       </defs>
       <use xlink:href="#DejaVuSans-35"/>
       <use xlink:href="#DejaVuSans-34" x="63.623047"/>
       <use xlink:href="#DejaVuSans-31" x="127.246094"/>
       <use xlink:href="#DejaVuSans-2e" x="190.869141"/>
       <use xlink:href="#DejaVuSans-6c" x="222.65625"/>
       <use xlink:href="#DejaVuSans-65" x="250.439453"/>
       <use xlink:href="#DejaVuSans-65" x="311.962891"/>
       <use xlink:href="#DejaVuSans-6c" x="373.486328"/>
       <use xlink:href="#DejaVuSans-61" x="401.269531"/>
       <use xlink:href="#DejaVuSans-5f" x="462.548828"/>
       <use xlink:href="#DejaVuSans-72" x="512.548828"/>
      </g>
     </g>
    </g>
    <g id="ytick_5">
     <g id="line2d_14">
      <g>
       <use xlink:href="#m67eea45d60" x="100.464063" y="669.764279" style="stroke: #000000; stroke-width: 0.8"/>
      </g>
     </g>
     <g id="text_14">
      <!-- 531.deepsjeng_r -->
      <g transform="translate(10.257812 673.563498) scale(0.1 -0.1)">
       <defs>
        <path id="DejaVuSans-64" d="M 2906 2969 
L 2906 4863 
L 3481 4863 
L 3481 0 
L 2906 0 
L 2906 525 
Q 2725 213 2448 61 
Q 2172 -91 1784 -91 
Q 1150 -91 751 415 
Q 353 922 353 1747 
Q 353 2572 751 3078 
Q 1150 3584 1784 3584 
Q 2172 3584 2448 3432 
Q 2725 3281 2906 2969 
z
M 947 1747 
Q 947 1113 1208 752 
Q 1469 391 1925 391 
Q 2381 391 2643 752 
Q 2906 1113 2906 1747 
Q 2906 2381 2643 2742 
Q 2381 3103 1925 3103 
Q 1469 3103 1208 2742 
Q 947 2381 947 1747 
z
" transform="scale(0.015625)"/>
        <path id="DejaVuSans-70" d="M 1159 525 
L 1159 -1331 
L 581 -1331 
L 581 3500 
L 1159 3500 
L 1159 2969 
Q 1341 3281 1617 3432 
Q 1894 3584 2278 3584 
Q 2916 3584 3314 3078 
Q 3713 2572 3713 1747 
Q 3713 922 3314 415 
Q 2916 -91 2278 -91 
Q 1894 -91 1617 61 
Q 1341 213 1159 525 
z
M 3116 1747 
Q 3116 2381 2855 2742 
Q 2594 3103 2138 3103 
Q 1681 3103 1420 2742 
Q 1159 2381 1159 1747 
Q 1159 1113 1420 752 
Q 1681 391 2138 391 
Q 2594 391 2855 752 
Q 3116 1113 3116 1747 
z
" transform="scale(0.015625)"/>
        <path id="DejaVuSans-73" d="M 2834 3397 
L 2834 2853 
Q 2591 2978 2328 3040 
Q 2066 3103 1784 3103 
Q 1356 3103 1142 2972 
Q 928 2841 928 2578 
Q 928 2378 1081 2264 
Q 1234 2150 1697 2047 
L 1894 2003 
Q 2506 1872 2764 1633 
Q 3022 1394 3022 966 
Q 3022 478 2636 193 
Q 2250 -91 1575 -91 
Q 1294 -91 989 -36 
Q 684 19 347 128 
L 347 722 
Q 666 556 975 473 
Q 1284 391 1588 391 
Q 1994 391 2212 530 
Q 2431 669 2431 922 
Q 2431 1156 2273 1281 
Q 2116 1406 1581 1522 
L 1381 1569 
Q 847 1681 609 1914 
Q 372 2147 372 2553 
Q 372 3047 722 3315 
Q 1072 3584 1716 3584 
Q 2034 3584 2315 3537 
Q 2597 3491 2834 3397 
z
" transform="scale(0.015625)"/>
        <path id="DejaVuSans-6a" d="M 603 3500 
L 1178 3500 
L 1178 -63 
Q 1178 -731 923 -1031 
Q 669 -1331 103 -1331 
L -116 -1331 
L -116 -844 
L 38 -844 
Q 366 -844 484 -692 
Q 603 -541 603 -63 
L 603 3500 
z
M 603 4863 
L 1178 4863 
L 1178 4134 
L 603 4134 
L 603 4863 
z
" transform="scale(0.015625)"/>
       </defs>
       <use xlink:href="#DejaVuSans-35"/>
       <use xlink:href="#DejaVuSans-33" x="63.623047"/>
       <use xlink:href="#DejaVuSans-31" x="127.246094"/>
       <use xlink:href="#DejaVuSans-2e" x="190.869141"/>
       <use xlink:href="#DejaVuSans-64" x="222.65625"/>
       <use xlink:href="#DejaVuSans-65" x="286.132812"/>
       <use xlink:href="#DejaVuSans-65" x="347.65625"/>
       <use xlink:href="#DejaVuSans-70" x="409.179688"/>
       <use xlink:href="#DejaVuSans-73" x="472.65625"/>
       <use xlink:href="#DejaVuSans-6a" x="524.755859"/>
       <use xlink:href="#DejaVuSans-65" x="552.539062"/>
       <use xlink:href="#DejaVuSans-6e" x="614.0625"/>
       <use xlink:href="#DejaVuSans-67" x="677.441406"/>
       <use xlink:href="#DejaVuSans-5f" x="740.917969"/>
       <use xlink:href="#DejaVuSans-72" x="790.917969"/>
      </g>
     </g>
    </g>
    <g id="ytick_6">
     <g id="line2d_15">
      <g>
       <use xlink:href="#m67eea45d60" x="100.464063" y="576.718125" style="stroke: #000000; stroke-width: 0.8"/>
      </g>
     </g>
     <g id="text_15">
      <!-- 525.x264_r -->
      <g transform="translate(37.08125 580.429062) scale(0.1 -0.1)">
       <use xlink:href="#DejaVuSans-35"/>
       <use xlink:href="#DejaVuSans-32" x="63.623047"/>
       <use xlink:href="#DejaVuSans-35" x="127.246094"/>
       <use xlink:href="#DejaVuSans-2e" x="190.869141"/>
       <use xlink:href="#DejaVuSans-78" x="222.65625"/>
       <use xlink:href="#DejaVuSans-32" x="281.835938"/>
       <use xlink:href="#DejaVuSans-36" x="345.458984"/>
       <use xlink:href="#DejaVuSans-34" x="409.082031"/>
       <use xlink:href="#DejaVuSans-5f" x="472.705078"/>
       <use xlink:href="#DejaVuSans-72" x="522.705078"/>
      </g>
     </g>
    </g>
    <g id="ytick_7">
     <g id="line2d_16">
      <g>
       <use xlink:href="#m67eea45d60" x="100.464063" y="483.671971" style="stroke: #000000; stroke-width: 0.8"/>
      </g>
     </g>
     <g id="text_16">
      <!-- 523.xalancbmk_r -->
      <g transform="translate(7.41875 487.47119) scale(0.1 -0.1)">
       <defs>
        <path id="DejaVuSans-62" d="M 3116 1747 
Q 3116 2381 2855 2742 
Q 2594 3103 2138 3103 
Q 1681 3103 1420 2742 
Q 1159 2381 1159 1747 
Q 1159 1113 1420 752 
Q 1681 391 2138 391 
Q 2594 391 2855 752 
Q 3116 1113 3116 1747 
z
M 1159 2969 
Q 1341 3281 1617 3432 
Q 1894 3584 2278 3584 
Q 2916 3584 3314 3078 
Q 3713 2572 3713 1747 
Q 3713 922 3314 415 
Q 2916 -91 2278 -91 
Q 1894 -91 1617 61 
Q 1341 213 1159 525 
L 1159 0 
L 581 0 
L 581 4863 
L 1159 4863 
L 1159 2969 
z
" transform="scale(0.015625)"/>
        <path id="DejaVuSans-6b" d="M 581 4863 
L 1159 4863 
L 1159 1991 
L 2875 3500 
L 3609 3500 
L 1753 1863 
L 3688 0 
L 2938 0 
L 1159 1709 
L 1159 0 
L 581 0 
L 581 4863 
z
" transform="scale(0.015625)"/>
       </defs>
       <use xlink:href="#DejaVuSans-35"/>
       <use xlink:href="#DejaVuSans-32" x="63.623047"/>
       <use xlink:href="#DejaVuSans-33" x="127.246094"/>
       <use xlink:href="#DejaVuSans-2e" x="190.869141"/>
       <use xlink:href="#DejaVuSans-78" x="222.65625"/>
       <use xlink:href="#DejaVuSans-61" x="281.835938"/>
       <use xlink:href="#DejaVuSans-6c" x="343.115234"/>
       <use xlink:href="#DejaVuSans-61" x="370.898438"/>
       <use xlink:href="#DejaVuSans-6e" x="432.177734"/>
       <use xlink:href="#DejaVuSans-63" x="495.556641"/>
       <use xlink:href="#DejaVuSans-62" x="550.537109"/>
       <use xlink:href="#DejaVuSans-6d" x="614.013672"/>
       <use xlink:href="#DejaVuSans-6b" x="711.425781"/>
       <use xlink:href="#DejaVuSans-5f" x="769.335938"/>
       <use xlink:href="#DejaVuSans-72" x="819.335938"/>
      </g>
     </g>
    </g>
    <g id="ytick_8">
     <g id="line2d_17">
      <g>
       <use xlink:href="#m67eea45d60" x="100.464063" y="390.625817" style="stroke: #000000; stroke-width: 0.8"/>
      </g>
     </g>
     <g id="text_17">
      <!-- 520.omnetpp_r -->
      <g transform="translate(17.120313 394.336755) scale(0.1 -0.1)">
       <defs>
        <path id="DejaVuSans-74" d="M 1172 4494 
L 1172 3500 
L 2356 3500 
L 2356 3053 
L 1172 3053 
L 1172 1153 
Q 1172 725 1289 603 
Q 1406 481 1766 481 
L 2356 481 
L 2356 0 
L 1766 0 
Q 1100 0 847 248 
Q 594 497 594 1153 
L 594 3053 
L 172 3053 
L 172 3500 
L 594 3500 
L 594 4494 
L 1172 4494 
z
" transform="scale(0.015625)"/>
       </defs>
       <use xlink:href="#DejaVuSans-35"/>
       <use xlink:href="#DejaVuSans-32" x="63.623047"/>
       <use xlink:href="#DejaVuSans-30" x="127.246094"/>
       <use xlink:href="#DejaVuSans-2e" x="190.869141"/>
       <use xlink:href="#DejaVuSans-6f" x="222.65625"/>
       <use xlink:href="#DejaVuSans-6d" x="283.837891"/>
       <use xlink:href="#DejaVuSans-6e" x="381.25"/>
       <use xlink:href="#DejaVuSans-65" x="444.628906"/>
       <use xlink:href="#DejaVuSans-74" x="506.152344"/>
       <use xlink:href="#DejaVuSans-70" x="545.361328"/>
       <use xlink:href="#DejaVuSans-70" x="608.837891"/>
       <use xlink:href="#DejaVuSans-5f" x="672.314453"/>
       <use xlink:href="#DejaVuSans-72" x="722.314453"/>
      </g>
     </g>
    </g>
    <g id="ytick_9">
     <g id="line2d_18">
      <g>
       <use xlink:href="#m67eea45d60" x="100.464063" y="297.579663" style="stroke: #000000; stroke-width: 0.8"/>
      </g>
     </g>
     <g id="text_18">
      <!-- 505.mcf_r -->
      <g transform="translate(43.328125 301.378882) scale(0.1 -0.1)">
       <defs>
        <path id="DejaVuSans-66" d="M 2375 4863 
L 2375 4384 
L 1825 4384 
Q 1516 4384 1395 4259 
Q 1275 4134 1275 3809 
L 1275 3500 
L 2222 3500 
L 2222 3053 
L 1275 3053 
L 1275 0 
L 697 0 
L 697 3053 
L 147 3053 
L 147 3500 
L 697 3500 
L 697 3744 
Q 697 4328 969 4595 
Q 1241 4863 1831 4863 
L 2375 4863 
z
" transform="scale(0.015625)"/>
       </defs>
       <use xlink:href="#DejaVuSans-35"/>
       <use xlink:href="#DejaVuSans-30" x="63.623047"/>
       <use xlink:href="#DejaVuSans-35" x="127.246094"/>
       <use xlink:href="#DejaVuSans-2e" x="190.869141"/>
       <use xlink:href="#DejaVuSans-6d" x="222.65625"/>
       <use xlink:href="#DejaVuSans-63" x="320.068359"/>
       <use xlink:href="#DejaVuSans-66" x="375.048828"/>
       <use xlink:href="#DejaVuSans-5f" x="410.253906"/>
       <use xlink:href="#DejaVuSans-72" x="460.253906"/>
      </g>
     </g>
    </g>
    <g id="ytick_10">
     <g id="line2d_19">
      <g>
       <use xlink:href="#m67eea45d60" x="100.464063" y="204.53351" style="stroke: #000000; stroke-width: 0.8"/>
      </g>
     </g>
     <g id="text_19">
      <!-- 502.gcc_r -->
      <g transform="translate(44.742188 208.244447) scale(0.1 -0.1)">
       <use xlink:href="#DejaVuSans-35"/>
       <use xlink:href="#DejaVuSans-30" x="63.623047"/>
       <use xlink:href="#DejaVuSans-32" x="127.246094"/>
       <use xlink:href="#DejaVuSans-2e" x="190.869141"/>
       <use xlink:href="#DejaVuSans-67" x="222.65625"/>
       <use xlink:href="#DejaVuSans-63" x="286.132812"/>
       <use xlink:href="#DejaVuSans-63" x="341.113281"/>
       <use xlink:href="#DejaVuSans-5f" x="396.09375"/>
       <use xlink:href="#DejaVuSans-72" x="446.09375"/>
      </g>
     </g>
    </g>
    <g id="ytick_11">
     <g id="line2d_20">
      <g>
       <use xlink:href="#m67eea45d60" x="100.464063" y="111.487356" style="stroke: #000000; stroke-width: 0.8"/>
      </g>
     </g>
     <g id="text_20">
      <!-- 500.perlbench_r -->
      <g transform="translate(12.021875 115.286575) scale(0.1 -0.1)">
       <use xlink:href="#DejaVuSans-35"/>
       <use xlink:href="#DejaVuSans-30" x="63.623047"/>
       <use xlink:href="#DejaVuSans-30" x="127.246094"/>
       <use xlink:href="#DejaVuSans-2e" x="190.869141"/>
       <use xlink:href="#DejaVuSans-70" x="222.65625"/>
       <use xlink:href="#DejaVuSans-65" x="286.132812"/>
       <use xlink:href="#DejaVuSans-72" x="347.65625"/>
       <use xlink:href="#DejaVuSans-6c" x="388.769531"/>
       <use xlink:href="#DejaVuSans-62" x="416.552734"/>
       <use xlink:href="#DejaVuSans-65" x="480.029297"/>
       <use xlink:href="#DejaVuSans-6e" x="541.552734"/>
       <use xlink:href="#DejaVuSans-63" x="604.931641"/>
       <use xlink:href="#DejaVuSans-68" x="659.912109"/>
       <use xlink:href="#DejaVuSans-5f" x="723.291016"/>
       <use xlink:href="#DejaVuSans-72" x="773.291016"/>
      </g>
     </g>
    </g>
   </g>
   <g id="patch_58">
    <path d="M 100.464063 1131.118125 
L 100.464063 22.318125 
" style="fill: none; stroke: #000000; stroke-width: 0.8; stroke-linejoin: miter; stroke-linecap: square"/>
   </g>
   <g id="patch_59">
    <path d="M 379.464063 1131.118125 
L 379.464063 22.318125 
" style="fill: none; stroke: #000000; stroke-width: 0.8; stroke-linejoin: miter; stroke-linecap: square"/>
   </g>
   <g id="patch_60">
    <path d="M 100.464063 1131.118125 
L 379.464063 1131.118125 
" style="fill: none; stroke: #000000; stroke-width: 0.8; stroke-linejoin: miter; stroke-linecap: square"/>
   </g>
   <g id="patch_61">
    <path d="M 100.464063 22.318125 
L 379.464063 22.318125 
" style="fill: none; stroke: #000000; stroke-width: 0.8; stroke-linejoin: miter; stroke-linecap: square"/>
   </g>
   <g id="text_21">
    <!-- 2533.53 -->
    <g transform="translate(182.051824 1013.692885) scale(0.1 -0.1)">
     <use xlink:href="#DejaVuSans-32"/>
     <use xlink:href="#DejaVuSans-35" x="63.623047"/>
     <use xlink:href="#DejaVuSans-33" x="127.246094"/>
     <use xlink:href="#DejaVuSans-33" x="190.869141"/>
     <use xlink:href="#DejaVuSans-2e" x="254.492188"/>
     <use xlink:href="#DejaVuSans-35" x="286.279297"/>
     <use xlink:href="#DejaVuSans-33" x="349.902344"/>
    </g>
   </g>
   <g id="text_22">
    <!-- 2527.38 -->
    <g transform="translate(181.861057 920.646731) scale(0.1 -0.1)">
     <use xlink:href="#DejaVuSans-32"/>
     <use xlink:href="#DejaVuSans-35" x="63.623047"/>
     <use xlink:href="#DejaVuSans-32" x="127.246094"/>
     <use xlink:href="#DejaVuSans-37" x="190.869141"/>
     <use xlink:href="#DejaVuSans-2e" x="254.492188"/>
     <use xlink:href="#DejaVuSans-33" x="286.279297"/>
     <use xlink:href="#DejaVuSans-38" x="349.902344"/>
    </g>
   </g>
   <g id="text_23">
    <!-- 2544.55 -->
    <g transform="translate(182.393654 827.600577) scale(0.1 -0.1)">
     <use xlink:href="#DejaVuSans-32"/>
     <use xlink:href="#DejaVuSans-35" x="63.623047"/>
     <use xlink:href="#DejaVuSans-34" x="127.246094"/>
     <use xlink:href="#DejaVuSans-34" x="190.869141"/>
     <use xlink:href="#DejaVuSans-2e" x="254.492188"/>
     <use xlink:href="#DejaVuSans-35" x="286.279297"/>
     <use xlink:href="#DejaVuSans-35" x="349.902344"/>
    </g>
   </g>
   <g id="text_24">
    <!-- 2539.36 -->
    <g transform="translate(182.232665 734.554423) scale(0.1 -0.1)">
     <defs>
      <path id="DejaVuSans-39" d="M 703 97 
L 703 672 
Q 941 559 1184 500 
Q 1428 441 1663 441 
Q 2288 441 2617 861 
Q 2947 1281 2994 2138 
Q 2813 1869 2534 1725 
Q 2256 1581 1919 1581 
Q 1219 1581 811 2004 
Q 403 2428 403 3163 
Q 403 3881 828 4315 
Q 1253 4750 1959 4750 
Q 2769 4750 3195 4129 
Q 3622 3509 3622 2328 
Q 3622 1225 3098 567 
Q 2575 -91 1691 -91 
Q 1453 -91 1209 -44 
Q 966 3 703 97 
z
M 1959 2075 
Q 2384 2075 2632 2365 
Q 2881 2656 2881 3163 
Q 2881 3666 2632 3958 
Q 2384 4250 1959 4250 
Q 1534 4250 1286 3958 
Q 1038 3666 1038 3163 
Q 1038 2656 1286 2365 
Q 1534 2075 1959 2075 
z
" transform="scale(0.015625)"/>
     </defs>
     <use xlink:href="#DejaVuSans-32"/>
     <use xlink:href="#DejaVuSans-35" x="63.623047"/>
     <use xlink:href="#DejaVuSans-33" x="127.246094"/>
     <use xlink:href="#DejaVuSans-39" x="190.869141"/>
     <use xlink:href="#DejaVuSans-2e" x="254.492188"/>
     <use xlink:href="#DejaVuSans-33" x="286.279297"/>
     <use xlink:href="#DejaVuSans-36" x="349.902344"/>
    </g>
   </g>
   <g id="text_25">
    <!-- 2541.81 -->
    <g transform="translate(182.308662 641.508269) scale(0.1 -0.1)">
     <use xlink:href="#DejaVuSans-32"/>
     <use xlink:href="#DejaVuSans-35" x="63.623047"/>
     <use xlink:href="#DejaVuSans-34" x="127.246094"/>
     <use xlink:href="#DejaVuSans-31" x="190.869141"/>
     <use xlink:href="#DejaVuSans-2e" x="254.492188"/>
     <use xlink:href="#DejaVuSans-38" x="286.279297"/>
     <use xlink:href="#DejaVuSans-31" x="349.902344"/>
    </g>
   </g>
   <g id="text_26">
    <!-- 2539.38 -->
    <g transform="translate(182.233286 548.462115) scale(0.1 -0.1)">
     <use xlink:href="#DejaVuSans-32"/>
     <use xlink:href="#DejaVuSans-35" x="63.623047"/>
     <use xlink:href="#DejaVuSans-33" x="127.246094"/>
     <use xlink:href="#DejaVuSans-39" x="190.869141"/>
     <use xlink:href="#DejaVuSans-2e" x="254.492188"/>
     <use xlink:href="#DejaVuSans-33" x="286.279297"/>
     <use xlink:href="#DejaVuSans-38" x="349.902344"/>
    </g>
   </g>
   <g id="text_27">
    <!-- 2531.12 -->
    <g transform="translate(181.977068 455.415962) scale(0.1 -0.1)">
     <use xlink:href="#DejaVuSans-32"/>
     <use xlink:href="#DejaVuSans-35" x="63.623047"/>
     <use xlink:href="#DejaVuSans-33" x="127.246094"/>
     <use xlink:href="#DejaVuSans-31" x="190.869141"/>
     <use xlink:href="#DejaVuSans-2e" x="254.492188"/>
     <use xlink:href="#DejaVuSans-31" x="286.279297"/>
     <use xlink:href="#DejaVuSans-32" x="349.902344"/>
    </g>
   </g>
   <g id="text_28">
    <!-- 2507.73 -->
    <g transform="translate(181.251532 362.369808) scale(0.1 -0.1)">
     <use xlink:href="#DejaVuSans-32"/>
     <use xlink:href="#DejaVuSans-35" x="63.623047"/>
     <use xlink:href="#DejaVuSans-30" x="127.246094"/>
     <use xlink:href="#DejaVuSans-37" x="190.869141"/>
     <use xlink:href="#DejaVuSans-2e" x="254.492188"/>
     <use xlink:href="#DejaVuSans-37" x="286.279297"/>
     <use xlink:href="#DejaVuSans-33" x="349.902344"/>
    </g>
   </g>
   <g id="text_29">
    <!-- 2537.52 -->
    <g transform="translate(182.17559 269.323654) scale(0.1 -0.1)">
     <use xlink:href="#DejaVuSans-32"/>
     <use xlink:href="#DejaVuSans-35" x="63.623047"/>
     <use xlink:href="#DejaVuSans-33" x="127.246094"/>
     <use xlink:href="#DejaVuSans-37" x="190.869141"/>
     <use xlink:href="#DejaVuSans-2e" x="254.492188"/>
     <use xlink:href="#DejaVuSans-35" x="286.279297"/>
     <use xlink:href="#DejaVuSans-32" x="349.902344"/>
    </g>
   </g>
   <g id="text_30">
    <!-- 2531.58 -->
    <g transform="translate(181.991337 176.2775) scale(0.1 -0.1)">
     <use xlink:href="#DejaVuSans-32"/>
     <use xlink:href="#DejaVuSans-35" x="63.623047"/>
     <use xlink:href="#DejaVuSans-33" x="127.246094"/>
     <use xlink:href="#DejaVuSans-31" x="190.869141"/>
     <use xlink:href="#DejaVuSans-2e" x="254.492188"/>
     <use xlink:href="#DejaVuSans-35" x="286.279297"/>
     <use xlink:href="#DejaVuSans-38" x="349.902344"/>
    </g>
   </g>
   <g id="text_31">
    <!-- 2535.05 -->
    <g transform="translate(182.098973 83.231346) scale(0.1 -0.1)">
     <use xlink:href="#DejaVuSans-32"/>
     <use xlink:href="#DejaVuSans-35" x="63.623047"/>
     <use xlink:href="#DejaVuSans-33" x="127.246094"/>
     <use xlink:href="#DejaVuSans-35" x="190.869141"/>
     <use xlink:href="#DejaVuSans-2e" x="254.492188"/>
     <use xlink:href="#DejaVuSans-30" x="286.279297"/>
     <use xlink:href="#DejaVuSans-35" x="349.902344"/>
    </g>
   </g>
   <g id="text_32">
    <!-- 5525.52 -->
    <g transform="translate(274.860591 1029.200577) scale(0.1 -0.1)">
     <use xlink:href="#DejaVuSans-35"/>
     <use xlink:href="#DejaVuSans-35" x="63.623047"/>
     <use xlink:href="#DejaVuSans-32" x="127.246094"/>
     <use xlink:href="#DejaVuSans-35" x="190.869141"/>
     <use xlink:href="#DejaVuSans-2e" x="254.492188"/>
     <use xlink:href="#DejaVuSans-35" x="286.279297"/>
     <use xlink:href="#DejaVuSans-32" x="349.902344"/>
    </g>
   </g>
   <g id="text_33">
    <!-- 5509.98 -->
    <g transform="translate(274.37871 936.154423) scale(0.1 -0.1)">
     <use xlink:href="#DejaVuSans-35"/>
     <use xlink:href="#DejaVuSans-35" x="63.623047"/>
     <use xlink:href="#DejaVuSans-30" x="127.246094"/>
     <use xlink:href="#DejaVuSans-39" x="190.869141"/>
     <use xlink:href="#DejaVuSans-2e" x="254.492188"/>
     <use xlink:href="#DejaVuSans-39" x="286.279297"/>
     <use xlink:href="#DejaVuSans-38" x="349.902344"/>
    </g>
   </g>
   <g id="text_34">
    <!-- 5421.81 -->
    <g transform="translate(271.643448 843.108269) scale(0.1 -0.1)">
     <use xlink:href="#DejaVuSans-35"/>
     <use xlink:href="#DejaVuSans-34" x="63.623047"/>
     <use xlink:href="#DejaVuSans-32" x="127.246094"/>
     <use xlink:href="#DejaVuSans-31" x="190.869141"/>
     <use xlink:href="#DejaVuSans-2e" x="254.492188"/>
     <use xlink:href="#DejaVuSans-38" x="286.279297"/>
     <use xlink:href="#DejaVuSans-31" x="349.902344"/>
    </g>
   </g>
   <g id="text_35">
    <!-- 5505.02 -->
    <g transform="translate(274.224545 750.062115) scale(0.1 -0.1)">
     <use xlink:href="#DejaVuSans-35"/>
     <use xlink:href="#DejaVuSans-35" x="63.623047"/>
     <use xlink:href="#DejaVuSans-30" x="127.246094"/>
     <use xlink:href="#DejaVuSans-35" x="190.869141"/>
     <use xlink:href="#DejaVuSans-2e" x="254.492188"/>
     <use xlink:href="#DejaVuSans-30" x="286.279297"/>
     <use xlink:href="#DejaVuSans-32" x="349.902344"/>
    </g>
   </g>
   <g id="text_36">
    <!-- 5579.22 -->
    <g transform="translate(276.526161 657.015962) scale(0.1 -0.1)">
     <use xlink:href="#DejaVuSans-35"/>
     <use xlink:href="#DejaVuSans-35" x="63.623047"/>
     <use xlink:href="#DejaVuSans-37" x="127.246094"/>
     <use xlink:href="#DejaVuSans-39" x="190.869141"/>
     <use xlink:href="#DejaVuSans-2e" x="254.492188"/>
     <use xlink:href="#DejaVuSans-32" x="286.279297"/>
     <use xlink:href="#DejaVuSans-32" x="349.902344"/>
    </g>
   </g>
   <g id="text_37">
    <!-- 5523.48 -->
    <g transform="translate(274.797312 563.969808) scale(0.1 -0.1)">
     <use xlink:href="#DejaVuSans-35"/>
     <use xlink:href="#DejaVuSans-35" x="63.623047"/>
     <use xlink:href="#DejaVuSans-32" x="127.246094"/>
     <use xlink:href="#DejaVuSans-33" x="190.869141"/>
     <use xlink:href="#DejaVuSans-2e" x="254.492188"/>
     <use xlink:href="#DejaVuSans-34" x="286.279297"/>
     <use xlink:href="#DejaVuSans-38" x="349.902344"/>
    </g>
   </g>
   <g id="text_38">
    <!-- 5582.93 -->
    <g transform="translate(276.641397 470.923654) scale(0.1 -0.1)">
     <use xlink:href="#DejaVuSans-35"/>
     <use xlink:href="#DejaVuSans-35" x="63.623047"/>
     <use xlink:href="#DejaVuSans-38" x="127.246094"/>
     <use xlink:href="#DejaVuSans-32" x="190.869141"/>
     <use xlink:href="#DejaVuSans-2e" x="254.492188"/>
     <use xlink:href="#DejaVuSans-39" x="286.279297"/>
     <use xlink:href="#DejaVuSans-33" x="349.902344"/>
    </g>
   </g>
   <g id="text_39">
    <!-- 5643.9 -->
    <g transform="translate(278.532475 377.8775) scale(0.1 -0.1)">
     <use xlink:href="#DejaVuSans-35"/>
     <use xlink:href="#DejaVuSans-36" x="63.623047"/>
     <use xlink:href="#DejaVuSans-34" x="127.246094"/>
     <use xlink:href="#DejaVuSans-33" x="190.869141"/>
     <use xlink:href="#DejaVuSans-2e" x="254.492188"/>
     <use xlink:href="#DejaVuSans-39" x="286.279297"/>
    </g>
   </g>
   <g id="text_40">
    <!-- 5572.94 -->
    <g transform="translate(276.331361 284.831346) scale(0.1 -0.1)">
     <use xlink:href="#DejaVuSans-35"/>
     <use xlink:href="#DejaVuSans-35" x="63.623047"/>
     <use xlink:href="#DejaVuSans-37" x="127.246094"/>
     <use xlink:href="#DejaVuSans-32" x="190.869141"/>
     <use xlink:href="#DejaVuSans-2e" x="254.492188"/>
     <use xlink:href="#DejaVuSans-39" x="286.279297"/>
     <use xlink:href="#DejaVuSans-34" x="349.902344"/>
    </g>
   </g>
   <g id="text_41">
    <!-- 5506.19 -->
    <g transform="translate(274.261148 191.785192) scale(0.1 -0.1)">
     <use xlink:href="#DejaVuSans-35"/>
     <use xlink:href="#DejaVuSans-35" x="63.623047"/>
     <use xlink:href="#DejaVuSans-30" x="127.246094"/>
     <use xlink:href="#DejaVuSans-36" x="190.869141"/>
     <use xlink:href="#DejaVuSans-2e" x="254.492188"/>
     <use xlink:href="#DejaVuSans-31" x="286.279297"/>
     <use xlink:href="#DejaVuSans-39" x="349.902344"/>
    </g>
   </g>
   <g id="text_42">
    <!-- 5413.98 -->
    <g transform="translate(271.400724 98.739038) scale(0.1 -0.1)">
     <use xlink:href="#DejaVuSans-35"/>
     <use xlink:href="#DejaVuSans-34" x="63.623047"/>
     <use xlink:href="#DejaVuSans-31" x="127.246094"/>
     <use xlink:href="#DejaVuSans-33" x="190.869141"/>
     <use xlink:href="#DejaVuSans-2e" x="254.492188"/>
     <use xlink:href="#DejaVuSans-39" x="286.279297"/>
     <use xlink:href="#DejaVuSans-38" x="349.902344"/>
    </g>
   </g>
   <g id="text_43">
    <!-- 4721.04 -->
    <g transform="translate(249.906365 1044.708269) scale(0.1 -0.1)">
     <use xlink:href="#DejaVuSans-34"/>
     <use xlink:href="#DejaVuSans-37" x="63.623047"/>
     <use xlink:href="#DejaVuSans-32" x="127.246094"/>
     <use xlink:href="#DejaVuSans-31" x="190.869141"/>
     <use xlink:href="#DejaVuSans-2e" x="254.492188"/>
     <use xlink:href="#DejaVuSans-30" x="286.279297"/>
     <use xlink:href="#DejaVuSans-34" x="349.902344"/>
    </g>
   </g>
   <g id="text_44">
    <!-- 4721.77 -->
    <g transform="translate(249.929008 951.662115) scale(0.1 -0.1)">
     <use xlink:href="#DejaVuSans-34"/>
     <use xlink:href="#DejaVuSans-37" x="63.623047"/>
     <use xlink:href="#DejaVuSans-32" x="127.246094"/>
     <use xlink:href="#DejaVuSans-31" x="190.869141"/>
     <use xlink:href="#DejaVuSans-2e" x="254.492188"/>
     <use xlink:href="#DejaVuSans-37" x="286.279297"/>
     <use xlink:href="#DejaVuSans-37" x="349.902344"/>
    </g>
   </g>
   <g id="text_45">
    <!-- 4722.94 -->
    <g transform="translate(249.965301 858.615962) scale(0.1 -0.1)">
     <use xlink:href="#DejaVuSans-34"/>
     <use xlink:href="#DejaVuSans-37" x="63.623047"/>
     <use xlink:href="#DejaVuSans-32" x="127.246094"/>
     <use xlink:href="#DejaVuSans-32" x="190.869141"/>
     <use xlink:href="#DejaVuSans-2e" x="254.492188"/>
     <use xlink:href="#DejaVuSans-39" x="286.279297"/>
     <use xlink:href="#DejaVuSans-34" x="349.902344"/>
    </g>
   </g>
   <g id="text_46">
    <!-- 4721.87 -->
    <g transform="translate(249.93211 765.569808) scale(0.1 -0.1)">
     <use xlink:href="#DejaVuSans-34"/>
     <use xlink:href="#DejaVuSans-37" x="63.623047"/>
     <use xlink:href="#DejaVuSans-32" x="127.246094"/>
     <use xlink:href="#DejaVuSans-31" x="190.869141"/>
     <use xlink:href="#DejaVuSans-2e" x="254.492188"/>
     <use xlink:href="#DejaVuSans-38" x="286.279297"/>
     <use xlink:href="#DejaVuSans-37" x="349.902344"/>
    </g>
   </g>
   <g id="text_47">
    <!-- 4722.05 -->
    <g transform="translate(249.937694 672.523654) scale(0.1 -0.1)">
     <use xlink:href="#DejaVuSans-34"/>
     <use xlink:href="#DejaVuSans-37" x="63.623047"/>
     <use xlink:href="#DejaVuSans-32" x="127.246094"/>
     <use xlink:href="#DejaVuSans-32" x="190.869141"/>
     <use xlink:href="#DejaVuSans-2e" x="254.492188"/>
     <use xlink:href="#DejaVuSans-30" x="286.279297"/>
     <use xlink:href="#DejaVuSans-35" x="349.902344"/>
    </g>
   </g>
   <g id="text_48">
    <!-- 4718.9 -->
    <g transform="translate(249.839984 579.4775) scale(0.1 -0.1)">
     <use xlink:href="#DejaVuSans-34"/>
     <use xlink:href="#DejaVuSans-37" x="63.623047"/>
     <use xlink:href="#DejaVuSans-31" x="127.246094"/>
     <use xlink:href="#DejaVuSans-38" x="190.869141"/>
     <use xlink:href="#DejaVuSans-2e" x="254.492188"/>
     <use xlink:href="#DejaVuSans-39" x="286.279297"/>
    </g>
   </g>
   <g id="text_49">
    <!-- 4720.49 -->
    <g transform="translate(249.889304 486.431346) scale(0.1 -0.1)">
     <use xlink:href="#DejaVuSans-34"/>
     <use xlink:href="#DejaVuSans-37" x="63.623047"/>
     <use xlink:href="#DejaVuSans-32" x="127.246094"/>
     <use xlink:href="#DejaVuSans-30" x="190.869141"/>
     <use xlink:href="#DejaVuSans-2e" x="254.492188"/>
     <use xlink:href="#DejaVuSans-34" x="286.279297"/>
     <use xlink:href="#DejaVuSans-39" x="349.902344"/>
    </g>
   </g>
   <g id="text_50">
    <!-- 4720.69 -->
    <g transform="translate(249.895508 393.385192) scale(0.1 -0.1)">
     <use xlink:href="#DejaVuSans-34"/>
     <use xlink:href="#DejaVuSans-37" x="63.623047"/>
     <use xlink:href="#DejaVuSans-32" x="127.246094"/>
     <use xlink:href="#DejaVuSans-30" x="190.869141"/>
     <use xlink:href="#DejaVuSans-2e" x="254.492188"/>
     <use xlink:href="#DejaVuSans-36" x="286.279297"/>
     <use xlink:href="#DejaVuSans-39" x="349.902344"/>
    </g>
   </g>
   <g id="text_51">
    <!-- 4721.65 -->
    <g transform="translate(249.925286 300.339038) scale(0.1 -0.1)">
     <use xlink:href="#DejaVuSans-34"/>
     <use xlink:href="#DejaVuSans-37" x="63.623047"/>
     <use xlink:href="#DejaVuSans-32" x="127.246094"/>
     <use xlink:href="#DejaVuSans-31" x="190.869141"/>
     <use xlink:href="#DejaVuSans-2e" x="254.492188"/>
     <use xlink:href="#DejaVuSans-36" x="286.279297"/>
     <use xlink:href="#DejaVuSans-35" x="349.902344"/>
    </g>
   </g>
   <g id="text_52">
    <!-- 4721.02 -->
    <g transform="translate(249.905744 207.292885) scale(0.1 -0.1)">
     <use xlink:href="#DejaVuSans-34"/>
     <use xlink:href="#DejaVuSans-37" x="63.623047"/>
     <use xlink:href="#DejaVuSans-32" x="127.246094"/>
     <use xlink:href="#DejaVuSans-31" x="190.869141"/>
     <use xlink:href="#DejaVuSans-2e" x="254.492188"/>
     <use xlink:href="#DejaVuSans-30" x="286.279297"/>
     <use xlink:href="#DejaVuSans-32" x="349.902344"/>
    </g>
   </g>
   <g id="text_53">
    <!-- 4719.01 -->
    <g transform="translate(249.843396 114.246731) scale(0.1 -0.1)">
     <use xlink:href="#DejaVuSans-34"/>
     <use xlink:href="#DejaVuSans-37" x="63.623047"/>
     <use xlink:href="#DejaVuSans-31" x="127.246094"/>
     <use xlink:href="#DejaVuSans-39" x="190.869141"/>
     <use xlink:href="#DejaVuSans-2e" x="254.492188"/>
     <use xlink:href="#DejaVuSans-30" x="286.279297"/>
     <use xlink:href="#DejaVuSans-31" x="349.902344"/>
    </g>
   </g>
   <g id="text_54">
    <!-- 5973.03 -->
    <g transform="translate(288.741938 1060.215962) scale(0.1 -0.1)">
     <use xlink:href="#DejaVuSans-35"/>
     <use xlink:href="#DejaVuSans-39" x="63.623047"/>
     <use xlink:href="#DejaVuSans-37" x="127.246094"/>
     <use xlink:href="#DejaVuSans-33" x="190.869141"/>
     <use xlink:href="#DejaVuSans-2e" x="254.492188"/>
     <use xlink:href="#DejaVuSans-30" x="286.279297"/>
     <use xlink:href="#DejaVuSans-33" x="349.902344"/>
    </g>
   </g>
   <g id="text_55">
    <!-- 5852 -->
    <g transform="translate(284.9877 967.169808) scale(0.1 -0.1)">
     <use xlink:href="#DejaVuSans-35"/>
     <use xlink:href="#DejaVuSans-38" x="63.623047"/>
     <use xlink:href="#DejaVuSans-35" x="127.246094"/>
     <use xlink:href="#DejaVuSans-32" x="190.869141"/>
    </g>
   </g>
   <g id="text_56">
    <!-- 5984.26 -->
    <g transform="translate(289.090283 874.123654) scale(0.1 -0.1)">
     <use xlink:href="#DejaVuSans-35"/>
     <use xlink:href="#DejaVuSans-39" x="63.623047"/>
     <use xlink:href="#DejaVuSans-38" x="127.246094"/>
     <use xlink:href="#DejaVuSans-34" x="190.869141"/>
     <use xlink:href="#DejaVuSans-2e" x="254.492188"/>
     <use xlink:href="#DejaVuSans-32" x="286.279297"/>
     <use xlink:href="#DejaVuSans-36" x="349.902344"/>
    </g>
   </g>
   <g id="text_57">
    <!-- 5991.26 -->
    <g transform="translate(289.307416 781.0775) scale(0.1 -0.1)">
     <use xlink:href="#DejaVuSans-35"/>
     <use xlink:href="#DejaVuSans-39" x="63.623047"/>
     <use xlink:href="#DejaVuSans-39" x="127.246094"/>
     <use xlink:href="#DejaVuSans-31" x="190.869141"/>
     <use xlink:href="#DejaVuSans-2e" x="254.492188"/>
     <use xlink:href="#DejaVuSans-32" x="286.279297"/>
     <use xlink:href="#DejaVuSans-36" x="349.902344"/>
    </g>
   </g>
   <g id="text_58">
    <!-- 5996.31 -->
    <g transform="translate(289.464063 688.031346) scale(0.1 -0.1)">
     <use xlink:href="#DejaVuSans-35"/>
     <use xlink:href="#DejaVuSans-39" x="63.623047"/>
     <use xlink:href="#DejaVuSans-39" x="127.246094"/>
     <use xlink:href="#DejaVuSans-36" x="190.869141"/>
     <use xlink:href="#DejaVuSans-2e" x="254.492188"/>
     <use xlink:href="#DejaVuSans-33" x="286.279297"/>
     <use xlink:href="#DejaVuSans-31" x="349.902344"/>
    </g>
   </g>
   <g id="text_59">
    <!-- 5990.72 -->
    <g transform="translate(289.290666 594.985192) scale(0.1 -0.1)">
     <use xlink:href="#DejaVuSans-35"/>
     <use xlink:href="#DejaVuSans-39" x="63.623047"/>
     <use xlink:href="#DejaVuSans-39" x="127.246094"/>
     <use xlink:href="#DejaVuSans-30" x="190.869141"/>
     <use xlink:href="#DejaVuSans-2e" x="254.492188"/>
     <use xlink:href="#DejaVuSans-37" x="286.279297"/>
     <use xlink:href="#DejaVuSans-32" x="349.902344"/>
    </g>
   </g>
   <g id="text_60">
    <!-- 5996.29 -->
    <g transform="translate(289.463442 501.939038) scale(0.1 -0.1)">
     <use xlink:href="#DejaVuSans-35"/>
     <use xlink:href="#DejaVuSans-39" x="63.623047"/>
     <use xlink:href="#DejaVuSans-39" x="127.246094"/>
     <use xlink:href="#DejaVuSans-36" x="190.869141"/>
     <use xlink:href="#DejaVuSans-2e" x="254.492188"/>
     <use xlink:href="#DejaVuSans-32" x="286.279297"/>
     <use xlink:href="#DejaVuSans-39" x="349.902344"/>
    </g>
   </g>
   <g id="text_61">
    <!-- 5994.35 -->
    <g transform="translate(289.403265 408.892885) scale(0.1 -0.1)">
     <use xlink:href="#DejaVuSans-35"/>
     <use xlink:href="#DejaVuSans-39" x="63.623047"/>
     <use xlink:href="#DejaVuSans-39" x="127.246094"/>
     <use xlink:href="#DejaVuSans-34" x="190.869141"/>
     <use xlink:href="#DejaVuSans-2e" x="254.492188"/>
     <use xlink:href="#DejaVuSans-33" x="286.279297"/>
     <use xlink:href="#DejaVuSans-35" x="349.902344"/>
    </g>
   </g>
   <g id="text_62">
    <!-- 5987.88 -->
    <g transform="translate(289.202572 315.846731) scale(0.1 -0.1)">
     <use xlink:href="#DejaVuSans-35"/>
     <use xlink:href="#DejaVuSans-39" x="63.623047"/>
     <use xlink:href="#DejaVuSans-38" x="127.246094"/>
     <use xlink:href="#DejaVuSans-37" x="190.869141"/>
     <use xlink:href="#DejaVuSans-2e" x="254.492188"/>
     <use xlink:href="#DejaVuSans-38" x="286.279297"/>
     <use xlink:href="#DejaVuSans-38" x="349.902344"/>
    </g>
   </g>
   <g id="text_63">
    <!-- 5985.04 -->
    <g transform="translate(289.114478 222.800577) scale(0.1 -0.1)">
     <use xlink:href="#DejaVuSans-35"/>
     <use xlink:href="#DejaVuSans-39" x="63.623047"/>
     <use xlink:href="#DejaVuSans-38" x="127.246094"/>
     <use xlink:href="#DejaVuSans-35" x="190.869141"/>
     <use xlink:href="#DejaVuSans-2e" x="254.492188"/>
     <use xlink:href="#DejaVuSans-30" x="286.279297"/>
     <use xlink:href="#DejaVuSans-34" x="349.902344"/>
    </g>
   </g>
   <g id="text_64">
    <!-- 5953.65 -->
    <g transform="translate(288.140789 129.754423) scale(0.1 -0.1)">
     <use xlink:href="#DejaVuSans-35"/>
     <use xlink:href="#DejaVuSans-39" x="63.623047"/>
     <use xlink:href="#DejaVuSans-35" x="127.246094"/>
     <use xlink:href="#DejaVuSans-33" x="190.869141"/>
     <use xlink:href="#DejaVuSans-2e" x="254.492188"/>
     <use xlink:href="#DejaVuSans-36" x="286.279297"/>
     <use xlink:href="#DejaVuSans-35" x="349.902344"/>
    </g>
   </g>
   <g id="text_65">
    <!-- 2599.92 -->
    <g transform="translate(184.11118 1075.723654) scale(0.1 -0.1)">
     <use xlink:href="#DejaVuSans-32"/>
     <use xlink:href="#DejaVuSans-35" x="63.623047"/>
     <use xlink:href="#DejaVuSans-39" x="127.246094"/>
     <use xlink:href="#DejaVuSans-39" x="190.869141"/>
     <use xlink:href="#DejaVuSans-2e" x="254.492188"/>
     <use xlink:href="#DejaVuSans-39" x="286.279297"/>
     <use xlink:href="#DejaVuSans-32" x="349.902344"/>
    </g>
   </g>
   <g id="text_66">
    <!-- 2599.92 -->
    <g transform="translate(184.11118 982.6775) scale(0.1 -0.1)">
     <use xlink:href="#DejaVuSans-32"/>
     <use xlink:href="#DejaVuSans-35" x="63.623047"/>
     <use xlink:href="#DejaVuSans-39" x="127.246094"/>
     <use xlink:href="#DejaVuSans-39" x="190.869141"/>
     <use xlink:href="#DejaVuSans-2e" x="254.492188"/>
     <use xlink:href="#DejaVuSans-39" x="286.279297"/>
     <use xlink:href="#DejaVuSans-32" x="349.902344"/>
    </g>
   </g>
   <g id="text_67">
    <!-- 2599.96 -->
    <g transform="translate(184.112421 889.631346) scale(0.1 -0.1)">
     <use xlink:href="#DejaVuSans-32"/>
     <use xlink:href="#DejaVuSans-35" x="63.623047"/>
     <use xlink:href="#DejaVuSans-39" x="127.246094"/>
     <use xlink:href="#DejaVuSans-39" x="190.869141"/>
     <use xlink:href="#DejaVuSans-2e" x="254.492188"/>
     <use xlink:href="#DejaVuSans-39" x="286.279297"/>
     <use xlink:href="#DejaVuSans-36" x="349.902344"/>
    </g>
   </g>
   <g id="text_68">
    <!-- 2599.94 -->
    <g transform="translate(184.111801 796.585192) scale(0.1 -0.1)">
     <use xlink:href="#DejaVuSans-32"/>
     <use xlink:href="#DejaVuSans-35" x="63.623047"/>
     <use xlink:href="#DejaVuSans-39" x="127.246094"/>
     <use xlink:href="#DejaVuSans-39" x="190.869141"/>
     <use xlink:href="#DejaVuSans-2e" x="254.492188"/>
     <use xlink:href="#DejaVuSans-39" x="286.279297"/>
     <use xlink:href="#DejaVuSans-34" x="349.902344"/>
    </g>
   </g>
   <g id="text_69">
    <!-- 2599.91 -->
    <g transform="translate(184.11087 703.539038) scale(0.1 -0.1)">
     <use xlink:href="#DejaVuSans-32"/>
     <use xlink:href="#DejaVuSans-35" x="63.623047"/>
     <use xlink:href="#DejaVuSans-39" x="127.246094"/>
     <use xlink:href="#DejaVuSans-39" x="190.869141"/>
     <use xlink:href="#DejaVuSans-2e" x="254.492188"/>
     <use xlink:href="#DejaVuSans-39" x="286.279297"/>
     <use xlink:href="#DejaVuSans-31" x="349.902344"/>
    </g>
   </g>
   <g id="text_70">
    <!-- 2599.9 -->
    <g transform="translate(184.11056 610.492885) scale(0.1 -0.1)">
     <use xlink:href="#DejaVuSans-32"/>
     <use xlink:href="#DejaVuSans-35" x="63.623047"/>
     <use xlink:href="#DejaVuSans-39" x="127.246094"/>
     <use xlink:href="#DejaVuSans-39" x="190.869141"/>
     <use xlink:href="#DejaVuSans-2e" x="254.492188"/>
     <use xlink:href="#DejaVuSans-39" x="286.279297"/>
    </g>
   </g>
   <g id="text_71">
    <!-- 2599.92 -->
    <g transform="translate(184.11118 517.446731) scale(0.1 -0.1)">
     <use xlink:href="#DejaVuSans-32"/>
     <use xlink:href="#DejaVuSans-35" x="63.623047"/>
     <use xlink:href="#DejaVuSans-39" x="127.246094"/>
     <use xlink:href="#DejaVuSans-39" x="190.869141"/>
     <use xlink:href="#DejaVuSans-2e" x="254.492188"/>
     <use xlink:href="#DejaVuSans-39" x="286.279297"/>
     <use xlink:href="#DejaVuSans-32" x="349.902344"/>
    </g>
   </g>
   <g id="text_72">
    <!-- 2599.88 -->
    <g transform="translate(184.10994 424.400577) scale(0.1 -0.1)">
     <use xlink:href="#DejaVuSans-32"/>
     <use xlink:href="#DejaVuSans-35" x="63.623047"/>
     <use xlink:href="#DejaVuSans-39" x="127.246094"/>
     <use xlink:href="#DejaVuSans-39" x="190.869141"/>
     <use xlink:href="#DejaVuSans-2e" x="254.492188"/>
     <use xlink:href="#DejaVuSans-38" x="286.279297"/>
     <use xlink:href="#DejaVuSans-38" x="349.902344"/>
    </g>
   </g>
   <g id="text_73">
    <!-- 2599.91 -->
    <g transform="translate(184.11087 331.354423) scale(0.1 -0.1)">
     <use xlink:href="#DejaVuSans-32"/>
     <use xlink:href="#DejaVuSans-35" x="63.623047"/>
     <use xlink:href="#DejaVuSans-39" x="127.246094"/>
     <use xlink:href="#DejaVuSans-39" x="190.869141"/>
     <use xlink:href="#DejaVuSans-2e" x="254.492188"/>
     <use xlink:href="#DejaVuSans-39" x="286.279297"/>
     <use xlink:href="#DejaVuSans-31" x="349.902344"/>
    </g>
   </g>
   <g id="text_74">
    <!-- 2599.89 -->
    <g transform="translate(184.11025 238.308269) scale(0.1 -0.1)">
     <use xlink:href="#DejaVuSans-32"/>
     <use xlink:href="#DejaVuSans-35" x="63.623047"/>
     <use xlink:href="#DejaVuSans-39" x="127.246094"/>
     <use xlink:href="#DejaVuSans-39" x="190.869141"/>
     <use xlink:href="#DejaVuSans-2e" x="254.492188"/>
     <use xlink:href="#DejaVuSans-38" x="286.279297"/>
     <use xlink:href="#DejaVuSans-39" x="349.902344"/>
    </g>
   </g>
   <g id="text_75">
    <!-- 2599.93 -->
    <g transform="translate(184.111491 145.262115) scale(0.1 -0.1)">
     <use xlink:href="#DejaVuSans-32"/>
     <use xlink:href="#DejaVuSans-35" x="63.623047"/>
     <use xlink:href="#DejaVuSans-39" x="127.246094"/>
     <use xlink:href="#DejaVuSans-39" x="190.869141"/>
     <use xlink:href="#DejaVuSans-2e" x="254.492188"/>
     <use xlink:href="#DejaVuSans-39" x="286.279297"/>
     <use xlink:href="#DejaVuSans-33" x="349.902344"/>
    </g>
   </g>
   <g id="text_76">
    <!-- SPEC INT 2017 Rate-1 Estimated Clock Freq (MHz) -->
    <g transform="translate(89.2975 16.318125) scale(0.12 -0.12)">
     <defs>
      <path id="DejaVuSans-53" d="M 3425 4513 
L 3425 3897 
Q 3066 4069 2747 4153 
Q 2428 4238 2131 4238 
Q 1616 4238 1336 4038 
Q 1056 3838 1056 3469 
Q 1056 3159 1242 3001 
Q 1428 2844 1947 2747 
L 2328 2669 
Q 3034 2534 3370 2195 
Q 3706 1856 3706 1288 
Q 3706 609 3251 259 
Q 2797 -91 1919 -91 
Q 1588 -91 1214 -16 
Q 841 59 441 206 
L 441 856 
Q 825 641 1194 531 
Q 1563 422 1919 422 
Q 2459 422 2753 634 
Q 3047 847 3047 1241 
Q 3047 1584 2836 1778 
Q 2625 1972 2144 2069 
L 1759 2144 
Q 1053 2284 737 2584 
Q 422 2884 422 3419 
Q 422 4038 858 4394 
Q 1294 4750 2059 4750 
Q 2388 4750 2728 4690 
Q 3069 4631 3425 4513 
z
" transform="scale(0.015625)"/>
      <path id="DejaVuSans-50" d="M 1259 4147 
L 1259 2394 
L 2053 2394 
Q 2494 2394 2734 2622 
Q 2975 2850 2975 3272 
Q 2975 3691 2734 3919 
Q 2494 4147 2053 4147 
L 1259 4147 
z
M 628 4666 
L 2053 4666 
Q 2838 4666 3239 4311 
Q 3641 3956 3641 3272 
Q 3641 2581 3239 2228 
Q 2838 1875 2053 1875 
L 1259 1875 
L 1259 0 
L 628 0 
L 628 4666 
z
" transform="scale(0.015625)"/>
      <path id="DejaVuSans-45" d="M 628 4666 
L 3578 4666 
L 3578 4134 
L 1259 4134 
L 1259 2753 
L 3481 2753 
L 3481 2222 
L 1259 2222 
L 1259 531 
L 3634 531 
L 3634 0 
L 628 0 
L 628 4666 
z
" transform="scale(0.015625)"/>
      <path id="DejaVuSans-43" d="M 4122 4306 
L 4122 3641 
Q 3803 3938 3442 4084 
Q 3081 4231 2675 4231 
Q 1875 4231 1450 3742 
Q 1025 3253 1025 2328 
Q 1025 1406 1450 917 
Q 1875 428 2675 428 
Q 3081 428 3442 575 
Q 3803 722 4122 1019 
L 4122 359 
Q 3791 134 3420 21 
Q 3050 -91 2638 -91 
Q 1578 -91 968 557 
Q 359 1206 359 2328 
Q 359 3453 968 4101 
Q 1578 4750 2638 4750 
Q 3056 4750 3426 4639 
Q 3797 4528 4122 4306 
z
" transform="scale(0.015625)"/>
      <path id="DejaVuSans-20" transform="scale(0.015625)"/>
      <path id="DejaVuSans-49" d="M 628 4666 
L 1259 4666 
L 1259 0 
L 628 0 
L 628 4666 
z
" transform="scale(0.015625)"/>
      <path id="DejaVuSans-4e" d="M 628 4666 
L 1478 4666 
L 3547 763 
L 3547 4666 
L 4159 4666 
L 4159 0 
L 3309 0 
L 1241 3903 
L 1241 0 
L 628 0 
L 628 4666 
z
" transform="scale(0.015625)"/>
      <path id="DejaVuSans-54" d="M -19 4666 
L 3928 4666 
L 3928 4134 
L 2272 4134 
L 2272 0 
L 1638 0 
L 1638 4134 
L -19 4134 
L -19 4666 
z
" transform="scale(0.015625)"/>
      <path id="DejaVuSans-52" d="M 2841 2188 
Q 3044 2119 3236 1894 
Q 3428 1669 3622 1275 
L 4263 0 
L 3584 0 
L 2988 1197 
Q 2756 1666 2539 1819 
Q 2322 1972 1947 1972 
L 1259 1972 
L 1259 0 
L 628 0 
L 628 4666 
L 2053 4666 
Q 2853 4666 3247 4331 
Q 3641 3997 3641 3322 
Q 3641 2881 3436 2590 
Q 3231 2300 2841 2188 
z
M 1259 4147 
L 1259 2491 
L 2053 2491 
Q 2509 2491 2742 2702 
Q 2975 2913 2975 3322 
Q 2975 3731 2742 3939 
Q 2509 4147 2053 4147 
L 1259 4147 
z
" transform="scale(0.015625)"/>
      <path id="DejaVuSans-2d" d="M 313 2009 
L 1997 2009 
L 1997 1497 
L 313 1497 
L 313 2009 
z
" transform="scale(0.015625)"/>
      <path id="DejaVuSans-69" d="M 603 3500 
L 1178 3500 
L 1178 0 
L 603 0 
L 603 3500 
z
M 603 4863 
L 1178 4863 
L 1178 4134 
L 603 4134 
L 603 4863 
z
" transform="scale(0.015625)"/>
      <path id="DejaVuSans-46" d="M 628 4666 
L 3309 4666 
L 3309 4134 
L 1259 4134 
L 1259 2759 
L 3109 2759 
L 3109 2228 
L 1259 2228 
L 1259 0 
L 628 0 
L 628 4666 
z
" transform="scale(0.015625)"/>
      <path id="DejaVuSans-71" d="M 947 1747 
Q 947 1113 1208 752 
Q 1469 391 1925 391 
Q 2381 391 2643 752 
Q 2906 1113 2906 1747 
Q 2906 2381 2643 2742 
Q 2381 3103 1925 3103 
Q 1469 3103 1208 2742 
Q 947 2381 947 1747 
z
M 2906 525 
Q 2725 213 2448 61 
Q 2172 -91 1784 -91 
Q 1150 -91 751 415 
Q 353 922 353 1747 
Q 353 2572 751 3078 
Q 1150 3584 1784 3584 
Q 2172 3584 2448 3432 
Q 2725 3281 2906 2969 
L 2906 3500 
L 3481 3500 
L 3481 -1331 
L 2906 -1331 
L 2906 525 
z
" transform="scale(0.015625)"/>
      <path id="DejaVuSans-28" d="M 1984 4856 
Q 1566 4138 1362 3434 
Q 1159 2731 1159 2009 
Q 1159 1288 1364 580 
Q 1569 -128 1984 -844 
L 1484 -844 
Q 1016 -109 783 600 
Q 550 1309 550 2009 
Q 550 2706 781 3412 
Q 1013 4119 1484 4856 
L 1984 4856 
z
" transform="scale(0.015625)"/>
      <path id="DejaVuSans-4d" d="M 628 4666 
L 1569 4666 
L 2759 1491 
L 3956 4666 
L 4897 4666 
L 4897 0 
L 4281 0 
L 4281 4097 
L 3078 897 
L 2444 897 
L 1241 4097 
L 1241 0 
L 628 0 
L 628 4666 
z
" transform="scale(0.015625)"/>
      <path id="DejaVuSans-48" d="M 628 4666 
L 1259 4666 
L 1259 2753 
L 3553 2753 
L 3553 4666 
L 4184 4666 
L 4184 0 
L 3553 0 
L 3553 2222 
L 1259 2222 
L 1259 0 
L 628 0 
L 628 4666 
z
" transform="scale(0.015625)"/>
      <path id="DejaVuSans-29" d="M 513 4856 
L 1013 4856 
Q 1481 4119 1714 3412 
Q 1947 2706 1947 2009 
Q 1947 1309 1714 600 
Q 1481 -109 1013 -844 
L 513 -844 
Q 928 -128 1133 580 
Q 1338 1288 1338 2009 
Q 1338 2731 1133 3434 
Q 928 4138 513 4856 
z
" transform="scale(0.015625)"/>
     </defs>
     <use xlink:href="#DejaVuSans-53"/>
     <use xlink:href="#DejaVuSans-50" x="63.476562"/>
     <use xlink:href="#DejaVuSans-45" x="123.779297"/>
     <use xlink:href="#DejaVuSans-43" x="186.962891"/>
     <use xlink:href="#DejaVuSans-20" x="256.787109"/>
     <use xlink:href="#DejaVuSans-49" x="288.574219"/>
     <use xlink:href="#DejaVuSans-4e" x="318.066406"/>
     <use xlink:href="#DejaVuSans-54" x="392.871094"/>
     <use xlink:href="#DejaVuSans-20" x="453.955078"/>
     <use xlink:href="#DejaVuSans-32" x="485.742188"/>
     <use xlink:href="#DejaVuSans-30" x="549.365234"/>
     <use xlink:href="#DejaVuSans-31" x="612.988281"/>
     <use xlink:href="#DejaVuSans-37" x="676.611328"/>
     <use xlink:href="#DejaVuSans-20" x="740.234375"/>
     <use xlink:href="#DejaVuSans-52" x="772.021484"/>
     <use xlink:href="#DejaVuSans-61" x="839.253906"/>
     <use xlink:href="#DejaVuSans-74" x="900.533203"/>
     <use xlink:href="#DejaVuSans-65" x="939.742188"/>
     <use xlink:href="#DejaVuSans-2d" x="1001.265625"/>
     <use xlink:href="#DejaVuSans-31" x="1037.349609"/>
     <use xlink:href="#DejaVuSans-20" x="1100.972656"/>
     <use xlink:href="#DejaVuSans-45" x="1132.759766"/>
     <use xlink:href="#DejaVuSans-73" x="1195.943359"/>
     <use xlink:href="#DejaVuSans-74" x="1248.042969"/>
     <use xlink:href="#DejaVuSans-69" x="1287.251953"/>
     <use xlink:href="#DejaVuSans-6d" x="1315.035156"/>
     <use xlink:href="#DejaVuSans-61" x="1412.447266"/>
     <use xlink:href="#DejaVuSans-74" x="1473.726562"/>
     <use xlink:href="#DejaVuSans-65" x="1512.935547"/>
     <use xlink:href="#DejaVuSans-64" x="1574.458984"/>
     <use xlink:href="#DejaVuSans-20" x="1637.935547"/>
     <use xlink:href="#DejaVuSans-43" x="1669.722656"/>
     <use xlink:href="#DejaVuSans-6c" x="1739.546875"/>
     <use xlink:href="#DejaVuSans-6f" x="1767.330078"/>
     <use xlink:href="#DejaVuSans-63" x="1828.511719"/>
     <use xlink:href="#DejaVuSans-6b" x="1883.492188"/>
     <use xlink:href="#DejaVuSans-20" x="1941.402344"/>
     <use xlink:href="#DejaVuSans-46" x="1973.189453"/>
     <use xlink:href="#DejaVuSans-72" x="2023.458984"/>
     <use xlink:href="#DejaVuSans-65" x="2062.322266"/>
     <use xlink:href="#DejaVuSans-71" x="2123.845703"/>
     <use xlink:href="#DejaVuSans-20" x="2187.322266"/>
     <use xlink:href="#DejaVuSans-28" x="2219.109375"/>
     <use xlink:href="#DejaVuSans-4d" x="2258.123047"/>
     <use xlink:href="#DejaVuSans-48" x="2344.402344"/>
     <use xlink:href="#DejaVuSans-7a" x="2419.597656"/>
     <use xlink:href="#DejaVuSans-29" x="2472.087891"/>
    </g>
   </g>
   <g id="legend_1">
    <g id="patch_62">
     <path d="M 205.882812 103.70875 
L 372.464063 103.70875 
Q 374.464063 103.70875 374.464063 101.70875 
L 374.464063 29.318125 
Q 374.464063 27.318125 372.464063 27.318125 
L 205.882812 27.318125 
Q 203.882812 27.318125 203.882812 29.318125 
L 203.882812 101.70875 
Q 203.882812 103.70875 205.882812 103.70875 
z
" style="fill: #ffffff; opacity: 0.8; stroke: #cccccc; stroke-linejoin: miter"/>
    </g>
    <g id="patch_63">
     <path d="M 207.882812 38.916563 
L 227.882812 38.916563 
L 227.882812 31.916563 
L 207.882812 31.916563 
z
" style="fill: #1f77b4"/>
    </g>
    <g id="text_77">
     <!-- AMD EPYC 7551 (O3) -->
     <g transform="translate(235.882812 38.916563) scale(0.1 -0.1)">
      <defs>
       <path id="DejaVuSans-41" d="M 2188 4044 
L 1331 1722 
L 3047 1722 
L 2188 4044 
z
M 1831 4666 
L 2547 4666 
L 4325 0 
L 3669 0 
L 3244 1197 
L 1141 1197 
L 716 0 
L 50 0 
L 1831 4666 
z
" transform="scale(0.015625)"/>
       <path id="DejaVuSans-44" d="M 1259 4147 
L 1259 519 
L 2022 519 
Q 2988 519 3436 956 
Q 3884 1394 3884 2338 
Q 3884 3275 3436 3711 
Q 2988 4147 2022 4147 
L 1259 4147 
z
M 628 4666 
L 1925 4666 
Q 3281 4666 3915 4102 
Q 4550 3538 4550 2338 
Q 4550 1131 3912 565 
Q 3275 0 1925 0 
L 628 0 
L 628 4666 
z
" transform="scale(0.015625)"/>
       <path id="DejaVuSans-59" d="M -13 4666 
L 666 4666 
L 1959 2747 
L 3244 4666 
L 3922 4666 
L 2272 2222 
L 2272 0 
L 1638 0 
L 1638 2222 
L -13 4666 
z
" transform="scale(0.015625)"/>
       <path id="DejaVuSans-4f" d="M 2522 4238 
Q 1834 4238 1429 3725 
Q 1025 3213 1025 2328 
Q 1025 1447 1429 934 
Q 1834 422 2522 422 
Q 3209 422 3611 934 
Q 4013 1447 4013 2328 
Q 4013 3213 3611 3725 
Q 3209 4238 2522 4238 
z
M 2522 4750 
Q 3503 4750 4090 4092 
Q 4678 3434 4678 2328 
Q 4678 1225 4090 567 
Q 3503 -91 2522 -91 
Q 1538 -91 948 565 
Q 359 1222 359 2328 
Q 359 3434 948 4092 
Q 1538 4750 2522 4750 
z
" transform="scale(0.015625)"/>
      </defs>
      <use xlink:href="#DejaVuSans-41"/>
      <use xlink:href="#DejaVuSans-4d" x="68.408203"/>
      <use xlink:href="#DejaVuSans-44" x="154.6875"/>
      <use xlink:href="#DejaVuSans-20" x="231.689453"/>
      <use xlink:href="#DejaVuSans-45" x="263.476562"/>
      <use xlink:href="#DejaVuSans-50" x="326.660156"/>
      <use xlink:href="#DejaVuSans-59" x="384.712891"/>
      <use xlink:href="#DejaVuSans-43" x="440.296875"/>
      <use xlink:href="#DejaVuSans-20" x="510.121094"/>
      <use xlink:href="#DejaVuSans-37" x="541.908203"/>
      <use xlink:href="#DejaVuSans-35" x="605.53125"/>
      <use xlink:href="#DejaVuSans-35" x="669.154297"/>
      <use xlink:href="#DejaVuSans-31" x="732.777344"/>
      <use xlink:href="#DejaVuSans-20" x="796.400391"/>
      <use xlink:href="#DejaVuSans-28" x="828.1875"/>
      <use xlink:href="#DejaVuSans-4f" x="867.201172"/>
      <use xlink:href="#DejaVuSans-33" x="945.912109"/>
      <use xlink:href="#DejaVuSans-29" x="1009.535156"/>
     </g>
    </g>
    <g id="patch_64">
     <path d="M 207.882812 53.594687 
L 227.882812 53.594687 
L 227.882812 46.594687 
L 207.882812 46.594687 
z
" style="fill: #ff7f0e"/>
    </g>
    <g id="text_78">
     <!-- AMD Ryzen 9 9950X (O3) -->
     <g transform="translate(235.882812 53.594687) scale(0.1 -0.1)">
      <defs>
       <path id="DejaVuSans-79" d="M 2059 -325 
Q 1816 -950 1584 -1140 
Q 1353 -1331 966 -1331 
L 506 -1331 
L 506 -850 
L 844 -850 
Q 1081 -850 1212 -737 
Q 1344 -625 1503 -206 
L 1606 56 
L 191 3500 
L 800 3500 
L 1894 763 
L 2988 3500 
L 3597 3500 
L 2059 -325 
z
" transform="scale(0.015625)"/>
       <path id="DejaVuSans-58" d="M 403 4666 
L 1081 4666 
L 2241 2931 
L 3406 4666 
L 4084 4666 
L 2584 2425 
L 4184 0 
L 3506 0 
L 2194 1984 
L 872 0 
L 191 0 
L 1856 2491 
L 403 4666 
z
" transform="scale(0.015625)"/>
      </defs>
      <use xlink:href="#DejaVuSans-41"/>
      <use xlink:href="#DejaVuSans-4d" x="68.408203"/>
      <use xlink:href="#DejaVuSans-44" x="154.6875"/>
      <use xlink:href="#DejaVuSans-20" x="231.689453"/>
      <use xlink:href="#DejaVuSans-52" x="263.476562"/>
      <use xlink:href="#DejaVuSans-79" x="327.458984"/>
      <use xlink:href="#DejaVuSans-7a" x="386.638672"/>
      <use xlink:href="#DejaVuSans-65" x="439.128906"/>
      <use xlink:href="#DejaVuSans-6e" x="500.652344"/>
      <use xlink:href="#DejaVuSans-20" x="564.03125"/>
      <use xlink:href="#DejaVuSans-39" x="595.818359"/>
      <use xlink:href="#DejaVuSans-20" x="659.441406"/>
      <use xlink:href="#DejaVuSans-39" x="691.228516"/>
      <use xlink:href="#DejaVuSans-39" x="754.851562"/>
      <use xlink:href="#DejaVuSans-35" x="818.474609"/>
      <use xlink:href="#DejaVuSans-30" x="882.097656"/>
      <use xlink:href="#DejaVuSans-58" x="945.720703"/>
      <use xlink:href="#DejaVuSans-20" x="1014.226562"/>
      <use xlink:href="#DejaVuSans-28" x="1046.013672"/>
      <use xlink:href="#DejaVuSans-4f" x="1085.027344"/>
      <use xlink:href="#DejaVuSans-33" x="1163.738281"/>
      <use xlink:href="#DejaVuSans-29" x="1227.361328"/>
     </g>
    </g>
    <g id="patch_65">
     <path d="M 207.882812 68.272813 
L 227.882812 68.272813 
L 227.882812 61.272813 
L 207.882812 61.272813 
z
" style="fill: #2ca02c"/>
    </g>
    <g id="text_79">
     <!-- Intel Core i9-10980XE (O3) -->
     <g transform="translate(235.882812 68.272813) scale(0.1 -0.1)">
      <use xlink:href="#DejaVuSans-49"/>
      <use xlink:href="#DejaVuSans-6e" x="29.492188"/>
      <use xlink:href="#DejaVuSans-74" x="92.871094"/>
      <use xlink:href="#DejaVuSans-65" x="132.080078"/>
      <use xlink:href="#DejaVuSans-6c" x="193.603516"/>
      <use xlink:href="#DejaVuSans-20" x="221.386719"/>
      <use xlink:href="#DejaVuSans-43" x="253.173828"/>
      <use xlink:href="#DejaVuSans-6f" x="322.998047"/>
      <use xlink:href="#DejaVuSans-72" x="384.179688"/>
      <use xlink:href="#DejaVuSans-65" x="423.042969"/>
      <use xlink:href="#DejaVuSans-20" x="484.566406"/>
      <use xlink:href="#DejaVuSans-69" x="516.353516"/>
      <use xlink:href="#DejaVuSans-39" x="544.136719"/>
      <use xlink:href="#DejaVuSans-2d" x="607.759766"/>
      <use xlink:href="#DejaVuSans-31" x="643.84375"/>
      <use xlink:href="#DejaVuSans-30" x="707.466797"/>
      <use xlink:href="#DejaVuSans-39" x="771.089844"/>
      <use xlink:href="#DejaVuSans-38" x="834.712891"/>
      <use xlink:href="#DejaVuSans-30" x="898.335938"/>
      <use xlink:href="#DejaVuSans-58" x="961.958984"/>
      <use xlink:href="#DejaVuSans-45" x="1030.464844"/>
      <use xlink:href="#DejaVuSans-20" x="1093.648438"/>
      <use xlink:href="#DejaVuSans-28" x="1125.435547"/>
      <use xlink:href="#DejaVuSans-4f" x="1164.449219"/>
      <use xlink:href="#DejaVuSans-33" x="1243.160156"/>
      <use xlink:href="#DejaVuSans-29" x="1306.783203"/>
     </g>
    </g>
    <g id="patch_66">
     <path d="M 207.882812 82.950938 
L 227.882812 82.950938 
L 227.882812 75.950938 
L 207.882812 75.950938 
z
" style="fill: #d62728"/>
    </g>
    <g id="text_80">
     <!-- Intel Core i9-14900K (O3) -->
     <g transform="translate(235.882812 82.950938) scale(0.1 -0.1)">
      <defs>
       <path id="DejaVuSans-4b" d="M 628 4666 
L 1259 4666 
L 1259 2694 
L 3353 4666 
L 4166 4666 
L 1850 2491 
L 4331 0 
L 3500 0 
L 1259 2247 
L 1259 0 
L 628 0 
L 628 4666 
z
" transform="scale(0.015625)"/>
      </defs>
      <use xlink:href="#DejaVuSans-49"/>
      <use xlink:href="#DejaVuSans-6e" x="29.492188"/>
      <use xlink:href="#DejaVuSans-74" x="92.871094"/>
      <use xlink:href="#DejaVuSans-65" x="132.080078"/>
      <use xlink:href="#DejaVuSans-6c" x="193.603516"/>
      <use xlink:href="#DejaVuSans-20" x="221.386719"/>
      <use xlink:href="#DejaVuSans-43" x="253.173828"/>
      <use xlink:href="#DejaVuSans-6f" x="322.998047"/>
      <use xlink:href="#DejaVuSans-72" x="384.179688"/>
      <use xlink:href="#DejaVuSans-65" x="423.042969"/>
      <use xlink:href="#DejaVuSans-20" x="484.566406"/>
      <use xlink:href="#DejaVuSans-69" x="516.353516"/>
      <use xlink:href="#DejaVuSans-39" x="544.136719"/>
      <use xlink:href="#DejaVuSans-2d" x="607.759766"/>
      <use xlink:href="#DejaVuSans-31" x="643.84375"/>
      <use xlink:href="#DejaVuSans-34" x="707.466797"/>
      <use xlink:href="#DejaVuSans-39" x="771.089844"/>
      <use xlink:href="#DejaVuSans-30" x="834.712891"/>
      <use xlink:href="#DejaVuSans-30" x="898.335938"/>
      <use xlink:href="#DejaVuSans-4b" x="961.958984"/>
      <use xlink:href="#DejaVuSans-20" x="1027.535156"/>
      <use xlink:href="#DejaVuSans-28" x="1059.322266"/>
      <use xlink:href="#DejaVuSans-4f" x="1098.335938"/>
      <use xlink:href="#DejaVuSans-33" x="1177.046875"/>
      <use xlink:href="#DejaVuSans-29" x="1240.669922"/>
     </g>
    </g>
    <g id="patch_67">
     <path d="M 207.882812 97.629063 
L 227.882812 97.629063 
L 227.882812 90.629063 
L 207.882812 90.629063 
z
" style="fill: #9467bd"/>
    </g>
    <g id="text_81">
     <!-- Kunpeng-920 (O3) -->
     <g transform="translate(235.882812 97.629063) scale(0.1 -0.1)">
      <defs>
       <path id="DejaVuSans-75" d="M 544 1381 
L 544 3500 
L 1119 3500 
L 1119 1403 
Q 1119 906 1312 657 
Q 1506 409 1894 409 
Q 2359 409 2629 706 
Q 2900 1003 2900 1516 
L 2900 3500 
L 3475 3500 
L 3475 0 
L 2900 0 
L 2900 538 
Q 2691 219 2414 64 
Q 2138 -91 1772 -91 
Q 1169 -91 856 284 
Q 544 659 544 1381 
z
M 1991 3584 
L 1991 3584 
z
" transform="scale(0.015625)"/>
      </defs>
      <use xlink:href="#DejaVuSans-4b"/>
      <use xlink:href="#DejaVuSans-75" x="60.576172"/>
      <use xlink:href="#DejaVuSans-6e" x="123.955078"/>
      <use xlink:href="#DejaVuSans-70" x="187.333984"/>
      <use xlink:href="#DejaVuSans-65" x="250.810547"/>
      <use xlink:href="#DejaVuSans-6e" x="312.333984"/>
      <use xlink:href="#DejaVuSans-67" x="375.712891"/>
      <use xlink:href="#DejaVuSans-2d" x="439.189453"/>
      <use xlink:href="#DejaVuSans-39" x="475.273438"/>
      <use xlink:href="#DejaVuSans-32" x="538.896484"/>
      <use xlink:href="#DejaVuSans-30" x="602.519531"/>
      <use xlink:href="#DejaVuSans-20" x="666.142578"/>
      <use xlink:href="#DejaVuSans-28" x="697.929688"/>
      <use xlink:href="#DejaVuSans-4f" x="736.943359"/>
      <use xlink:href="#DejaVuSans-33" x="815.654297"/>
      <use xlink:href="#DejaVuSans-29" x="879.277344"/>
     </g>
    </g>
   </g>
  </g>
 </g>
 <defs>
  <clipPath id="pa38114312a">
   <rect x="100.464063" y="22.318125" width="279" height="1108.8"/>
  </clipPath>
 </defs>
</svg>
